<svg xmlns="http://www.w3.org/2000/svg" width="31" height="32" viewBox="0 0 31 32">
    <path fill="#FFF" d="M15.429 31.571c8.517 0 15.428-6.91 15.428-15.428S23.947.714 15.43.714 0 7.625 0 16.143 6.91 31.57 15.429 31.57zm2.23-2.772c-.02-.1-.04-.301-.04-.321-.02-.322.32-.543.3-.844-.22-.06-.28-.281-.24-.522.04-.342.341-.583.582-.804.241-.22.302-.683.241-.964-.1-.482-.1-.985-.18-1.467.02.12.361.08.421.241.08-.14.12-.321.221-.462.08-.12.221-.16.342-.26.2-.121.623-.584.864-.302.2.24-.302.502-.04.723.08-.16 0-.402.16-.563.322-.361.543.04.864.141.342.1.462.221.723.442-.08-.08.322-.22.362-.241.382-.08.542.14.803.341.282.201.724.342.683.744.201.04.322.1.483.16.16.08.381.04.502.161-1.848 1.949-4.3 3.315-7.051 3.797zm6.227-19.766c.02.28.14.6.482.56 0 0 0 .382-.04.443-.12.18-.422.14-.603.24-.06.02-.542.443-.482.503-.26-.301-.683-.301-1.024-.221-.362.06-.703.1-1.045.241-.16.08-.321.16-.442.301-.06.08-.16.442-.261.462.2-.04.301-.26.462-.381.221-.14.583-.322.864-.241.22.06.402.14.14.321-.12.08-.3 0-.441.04.18.04.442.12.361.302.522.301-.16.663-.502.622.16.02-.342.322-.342.302-.18.1-.421.1-.562.281-.16.221.06.603-.241.522-.12.261-.583.12-.784.402.221.241-.22.583-.442.281-.2.08-.1.302-.3.422.08.12.1.241-.041.322.04-.02.281.18.341.2-.04.101-.12.181-.22.181.1.262-.121.543-.302.704-.2.16-.663.32-.723.361-.362.342-.603.844.04.984.02 0 .02.663.04.684.04.24.14.944-.281.683-.2-.1-.321-.663-.382-.884-.06-.241-.08-.241-.24-.483-.262.302-.302.08-.523-.06-.221-.12-.543-.08-.663-.2-.301.22-.522.16-.583-.181-.08.16.08.401.06.462-.1.2-.28.16-.441.04-.262-.201-.824.14-1.125 0 .02 0 .1.08.16.12-.06.241-.2.1-.321.181-.14.1-.261.301-.382.402.261.502-.02.984 0 1.527 0 .401.261 1.105.643 1.326.18.1.784.14.964.06.282-.12.241-.342.342-.583.1-.26.22-.381.522-.402.864-.04.201.663.1 1.025-.06.261-.08.563-.12.804.1.04.201.02.301.02 0-.08.06-.181.06-.241.121.2.523.26.644.02.14.24.421.422.462.703.04.281.301.582-.08.582-.282 0 .04.563.08.663.22.402.582.563.984.362 0 .16-.06.603-.281.643-.201.04-.583-.382-.502-.603-.02.08-.08.14-.141.18-.201-.24-.542-.36-.723-.602-.04-.06-.583-.884-.462-.924-.282.12-.844-.08-1.105-.22-.422-.222-.482-.804-1.005-.724-.361.06-.462.2-.884.04-.28-.1-.522-.301-.803-.442-.322-.18-.884-.361-1.005-.763-.12-.322-.08-.703-.26-1.005-.121-.2-.483-.602-.744-.602.24 0-.221-.603-.281-.663-.221-.261-1.025-.965-.864-1.366.04-.06-.402-.221-.482-.241.08.2.1.421.2.602.1.201.221.382.342.583.221.361.522.803.482 1.245-.261.08-.18-.301-.261-.462-.14-.26-.522-.26-.623-.542l.1-.04c.02-.342-.481-.623-.401-.864-.281-.221-.281-.643-.482-.924-.181-.261-.482-.382-.744-.563-.1-.06-.823-.984-.562-1.044-.402.1-.603-.844-.542-1.085 0 0-.04 0-.04-.02.08-.241-.06-1.487.26-1.507-.22.02-.28-.522-.22-.623.04-.08.341.221.361.261.12-.06.241-.22.201-.361-.06-.16-.281-.302-.422-.422-.06-.04-.864-.563-.884-.543.08-.14.06-.28-.06-.381-.382.301-.18-.281-.382-.342-.08-.02-.16-.08-.24-.16 1.164-1.849 2.792-3.396 4.72-4.46.12-.02.281-.02.442-.02.362.04.563.341.824.522.04-.1-.04-.261-.1-.362.06-.16.3-.2.441-.24.181-.02.442-.061.603.02-.12-.181-.261-.342-.402-.503-.02.02-.08.06-.1.1-.221-.18-.643.06-.844.141-.16.08-.301.181-.462.241-.1.04-.16.04-.241.02.603-.321 1.225-.602 1.888-.823.12.08.241.22.422.361-.12-.1-.12.362-.08.442.22.302.703.1 1.004.1-.017 0 .645.09.72-.025l.006-.031.047.087c.078.186.107.408.252.552.18-.18-.08-.381.04-.562.04-.08.402-.181.522-.241.14-.1-.1-.241-.16-.281-.201-.121-.985-.181-.603-.643.14-.161.643-.08.803.02.221.12.463.341.161.542.14.02.804.201.703.462.06-.12.161-.301.322-.301.18.02.22.442.301.542.281.503.764-.502.844-.462-.362-.14.321-.321.502-.26.14.06.362.541.1.521.222.201.242.643-.16.623-.281-.02-.603-.402-.864-.1-.18.2-.261.502-.442.683-.281.281-.663.26-1.004.22.14.02-.302.483-.342.563-.12.14-.2.302-.241.462-.04.201 0 .422-.1.623.341-.1.522.522.381.542.422-.06.764-.06 1.165.08.282.101.704.222.824.523.08-.12.462-.06.583-.02.24.12.26.382.321.603.08.301.342.803.683.643.06-.04.502-.241.342-.362-.161-.14-.342-.502-.181-.703.16-.221.542-.281.643-.563.16-.462-.482-.401-.482-.743 0-.2.26-.261.24-.502 0-.201-.3-.603-.06-.743.201-.121 1.166.08 1.346.2.181.12.744.282.784.462h-.1c.16.141.3.442.02.523.18-.04.703.16.341.281.12-.06.221-.02.341-.1.141-.08.221-.221.402-.121.04.02.261-.422.382-.402.18.02.221.282.301.402.08.18.302.241.382.422.14.341.08.663.542.783.141.04.523-.18.503.12.06-.06.098-.108.113-.137l.007-.021z"/>
</svg>
