<svg xmlns="http://www.w3.org/2000/svg" width="153" height="45" viewBox="0 0 153 45">
    <defs>
        <linearGradient id="vrm2disqwa" x1=".059%" x2="100.032%" y1="50.026%" y2="50.026%">
            <stop offset="0%" stop-color="#FFF"/>
            <stop offset="100%" stop-color="#FFF" stop-opacity="0"/>
        </linearGradient>
        <linearGradient id="6owdkpcn6b" x1="99.751%" x2="-.232%" y1="50.026%" y2="50.026%">
            <stop offset="0%" stop-color="#FFF"/>
            <stop offset="100%" stop-color="#FFF" stop-opacity="0"/>
        </linearGradient>
        <linearGradient id="18uy4lq0mc" x1=".032%" x2="100.022%" y1="50.007%" y2="50.007%">
            <stop offset="0%" stop-color="#FFF"/>
            <stop offset="100%" stop-color="#FFF" stop-opacity="0"/>
        </linearGradient>
    </defs>
    <g fill="none" fill-rule="evenodd">
        <path fill="#FFF" fill-rule="nonzero" d="M9.393 33.761L9.393 26.857 16.113 22.912 17.125 23.519 17.125 22.229 18.208 21.623 17.125 20.94 17.125 14.036 23.844 10.091 30.492 14.036 30.492 20.94 29.408 21.623 30.492 22.229 30.492 23.595 31.576 22.912 38.295 26.857 38.295 33.761 31.576 37.707 24.928 33.761 24.928 32.472 23.772 33.079 22.761 32.472 22.761 33.761 16.113 37.707z" transform="translate(0 .95)"/>
        <path fill="#106F90" fill-rule="nonzero" d="M22.76 33.761l-6.647 3.946-6.72-3.946 6.72-3.945 6.648 3.945zm15.463 0l-6.647 3.946-6.72-3.946 6.72-3.945 6.647 3.945z" transform="translate(0 .95)"/>
        <path fill="#00A485" fill-rule="nonzero" d="M23.844 33.079L17.125 29.133 17.125 22.229 23.844 26.175z" transform="translate(0 .95)"/>
        <path fill="#5DB89A" fill-rule="nonzero" d="M30.492 22.229L23.772 26.175 23.772 33.079 30.492 29.133z" transform="translate(0 .95)"/>
        <path fill="#79C2A1" fill-rule="nonzero" d="M17.125 22.229L23.772 18.284 30.492 22.229 23.844 26.175z" transform="translate(0 .95)"/>
        <g fill-rule="nonzero" opacity=".9">
            <path fill="#38A036" d="M7.009 14.946L0.361 11.001 0.361 4.097 7.009 8.042z" transform="translate(0 .95) translate(24.567 22.76)"/>
            <path fill="#50AB33" d="M13.729 4.097L7.009 8.042 7.009 14.946 13.729 11.001z" transform="translate(0 .95) translate(24.567 22.76)"/>
            <path fill="#7FBC5C" d="M0.361 4.097L7.009 0.152 13.729 4.097 7.009 8.042z" transform="translate(0 .95) translate(24.567 22.76)"/>
        </g>
        <g fill-rule="nonzero" opacity=".9">
            <path fill="#38A036" d="M6.72 14.946L0 11.001 0 4.097 6.72 8.042z" transform="translate(0 .95) translate(9.393 22.76)"/>
            <path fill="#50AB33" d="M13.367 4.097L6.72 8.042 6.72 14.946 13.367 11.001z" transform="translate(0 .95) translate(9.393 22.76)"/>
            <path fill="#7FBC5C" d="M0 4.097L6.72 0.152 13.367 4.097 6.72 8.042z" transform="translate(0 .95) translate(9.393 22.76)"/>
        </g>
        <g fill-rule="nonzero" opacity=".9">
            <path fill="#38A036" d="M7.226 15.022L0.506 11.077 0.506 4.173 7.226 8.118z" transform="translate(0 .95) translate(16.619 9.863)"/>
            <path fill="#50AB33" d="M13.873 4.173L7.153 8.118 7.153 15.022 13.873 11.077z" transform="translate(0 .95) translate(16.619 9.863)"/>
            <path fill="#7FBC5C" d="M0.506 4.173L7.153 0.228 13.873 4.173 7.226 8.118z" transform="translate(0 .95) translate(16.619 9.863)"/>
        </g>
        <path fill="url(#vrm2disqwa)" fill-rule="nonzero" d="M17.125 23.519L17.125 29.133 22.761 32.472 22.761 33.761 16.113 37.707 9.393 33.761 9.393 26.857 16.113 22.912z" opacity=".17" transform="translate(0 .95)"/>
        <path fill="url(#6owdkpcn6b)" fill-rule="nonzero" d="M24.928 32.472L30.492 29.133 30.492 23.595 31.576 22.912 38.295 26.857 38.295 33.761 31.576 37.707 24.928 33.761z" opacity=".12" transform="translate(0 .95)"/>
        <path fill="url(#18uy4lq0mc)" fill-rule="nonzero" d="M18.208 21.623L17.125 20.94 17.125 14.036 23.772 10.091 30.492 14.036 30.492 20.94 29.408 21.623 23.772 18.284z" opacity=".2" transform="translate(0 .95)"/>
        <path stroke="#228CBC" stroke-linejoin="round" stroke-width=".723" d="M47.038 32.016L40.319 35.962 40.319 42.866 47.038 38.921z" transform="translate(0 .95)"/>
        <path stroke="#4CA4DB" stroke-linejoin="round" stroke-width=".723" d="M40.319 42.866L33.671 38.921 33.671 32.016 40.319 35.962z" transform="translate(0 .95)"/>
        <path stroke="#77BDE4" stroke-linejoin="round" stroke-width=".723" d="M33.671 32.016L40.319 28.071 47.038 32.016 40.319 35.962z" transform="translate(0 .95)"/>
        <g stroke-linejoin="round" stroke-width=".723">
            <path stroke="#228CBC" d="M14.018 3.945L7.37 7.89 7.37 14.794 14.018 10.849z" transform="translate(0 .95) translate(0 28.071)"/>
            <path stroke="#4CA4DB" d="M7.37 14.794L0.65 10.849 0.65 3.945 7.37 7.89z" transform="translate(0 .95) translate(0 28.071)"/>
            <path stroke="#77BDE4" d="M0.65 3.945L7.37 0 14.018 3.945 7.37 7.89z" transform="translate(0 .95) translate(0 28.071)"/>
        </g>
        <g stroke-linejoin="round" stroke-width=".723">
            <path stroke="#228CBC" d="M13.873 4.325L7.153 8.27 7.153 15.174 13.873 11.229z" transform="translate(0 .95) translate(16.619)"/>
            <path stroke="#4CA4DB" d="M7.226 15.174L0.506 11.229 0.506 4.325 7.226 8.27z" transform="translate(0 .95) translate(16.619)"/>
            <path stroke="#77BDE4" d="M0.506 4.325L7.153 0.379 13.873 4.325 7.226 8.27z" transform="translate(0 .95) translate(16.619)"/>
        </g>
        <g fill="#FFF" fill-rule="nonzero">
            <path d="M12.735 0h3.523l-5.6 18.208H5.509L0 0h3.432l3.252 10.337c.27.948.722 2.655 1.354 4.932h.09l.362-1.233c.452-1.518.723-2.75 1.084-3.699L12.735 0zm4.877 18.208V0h7.858c2.348 0 3.974.474 4.787 1.328.813.853 1.265 2.56 1.265 4.931 0 2.466-.362 4.078-1.175 4.837-.813.758-2.348 1.233-4.696 1.233h-4.607v5.88h-3.432zm3.342-8.724h3.703c1.536 0 2.439-.19 2.8-.57.361-.379.632-1.232.632-2.56 0-1.517-.18-2.466-.542-2.845-.36-.38-1.174-.57-2.619-.57h-4.064v6.545h.09zm25.47-4.173h-3.251v-.38c-.09-1.043-.271-1.707-.632-1.896-.362-.285-1.175-.38-2.53-.38-1.535 0-2.619.19-3.07.475-.452.284-.723.948-.723 1.896 0 1.138.18 1.802.542 2.087.361.19 1.716.379 3.884.569 2.62.19 4.245.569 5.058 1.138.722.664 1.174 1.896 1.174 3.888 0 2.466-.452 3.983-1.355 4.647-.903.664-2.89 1.043-5.87 1.043-2.71 0-4.517-.38-5.42-1.043-.903-.664-1.355-2.086-1.355-4.173v-.664h3.162v.38c0 1.232.18 2.086.632 2.37.451.285 1.625.475 3.432.475 1.445 0 2.439-.19 2.8-.474.451-.285.632-1.044.632-2.277 0-.853-.18-1.422-.452-1.707-.27-.284-.993-.474-1.987-.569l-1.806-.094c-2.71-.19-4.516-.57-5.239-1.233-.722-.664-1.174-1.992-1.174-4.078 0-2.087.452-3.51 1.355-4.268C35.134.38 37.031 0 39.741 0c2.619 0 4.335.285 5.238.948.903.664 1.355 1.897 1.355 3.794v.569h.09zm5.42 9.673v3.32h-2.89v-3.32h2.89zM70.72 0v18.208h-5.6l-4.967-9.957c-.271-.474-.632-1.328-1.174-2.656l-.542-1.327-.542-1.328h-.09l.09 1.233v14.035h-3.252V0h5.6l4.516 9.199c.361.854.903 1.802 1.355 2.94l.632 1.517.632 1.518h.09V0h3.252zm5.42 2.94v4.742h8.128v2.56H76.14v5.121h8.671v2.94H72.888V0H84.72v2.94h-8.58zm18.063.19v15.078h-3.251V3.13h-4.968V0h13.368v3.13h-5.149zM18.064 26.744h2.529v-1.707h-6.955v1.707h2.53v7.017h1.896v-7.017zM28.63 33.76h1.897v-8.724h-1.897v3.603h-3.793v-3.603H22.94v8.724h1.897v-3.414h3.793v3.414zm10.748-6.164l1.084-1.422c-.451-.38-.903-.76-1.535-.949-.633-.19-1.174-.38-1.807-.38-.813 0-1.625.19-2.348.57-.723.38-1.264.948-1.626 1.612-.361.759-.632 1.517-.632 2.371 0 .854.18 1.612.542 2.276.361.664.903 1.233 1.626 1.612.632.38 1.445.57 2.258.57.542 0 1.174-.096 1.806-.285.632-.19 1.174-.474 1.626-.854V29.4h-1.626v2.37c-.27.19-.542.285-.813.38-.27.095-.542.095-.813.095-.451 0-.903-.095-1.354-.38-.362-.284-.723-.568-.994-1.042-.27-.475-.361-.854-.361-1.423 0-.474.09-.948.361-1.423.271-.379.542-.758.903-.948.362-.284.813-.38 1.355-.38.361 0 .813.096 1.174.285.542.19.813.38 1.174.664m-29.354 1.897v4.173c0 .094-.09.19-.18.19h-.813c-.09 0-.18-.096-.18-.19v-.38c0-.095 0-.095-.091 0-.452.474-1.084.664-1.806.664-1.084 0-1.987-.569-1.987-1.897 0-1.327.903-2.086 2.529-2.086H8.85s.09 0 .09-.095v-.284c0-.759-.36-1.138-1.264-1.138-.632 0-1.084.284-1.174.758 0 .095-.09.19-.18.19l-.904-.095c-.09 0-.18-.095-.18-.19.18-.948 1.083-1.612 2.438-1.612 1.445-.095 2.348.759 2.348 1.992zM8.851 31.77v-.759s0-.095-.09-.095H7.677c-.903 0-1.535.38-1.535 1.138 0 .664.542.949 1.174.949.813 0 1.535-.474 1.535-1.233zm36.309.474c-.09-.474-.18-.948-.18-1.517 0-.664.09-1.138.18-1.518.27-1.043 1.264-1.802 2.438-1.802 1.265 0 2.168.76 2.439 1.708.09.094.09.284.09.379 0 .095-.09.19-.18.19l-.813.094c-.09 0-.18 0-.18-.094v-.19c-.091-.57-.633-1.043-1.356-1.043-.722 0-1.174.474-1.354 1.043-.09.284-.09.664-.09 1.233 0 .569.09.948.09 1.138.18.664.632 1.043 1.354 1.043.723 0 1.265-.474 1.355-1.043v-.095c0-.095.09-.19.18-.19l.814.095c.09 0 .18.095.18.19s0 .19-.09.284c-.27 1.043-1.264 1.707-2.439 1.707-1.174.19-2.077-.569-2.438-1.612zm6.774 0c-.09-.38-.18-.948-.18-1.517 0-.57.09-1.138.18-1.518.361-1.138 1.264-1.802 2.529-1.802 1.174 0 2.077.664 2.438 1.802.181.475.181.949.181 1.518 0 .095-.09 1.138-.18 1.517-.362 1.138-1.265 1.802-2.44 1.802-1.264 0-2.167-.664-2.528-1.802zm3.793-.38c.09-.284.09-.758.09-1.137 0-.474-.09-.854-.09-1.138-.18-.664-.722-1.044-1.355-1.044-.632 0-1.174.38-1.354 1.044-.09.284-.09.664-.09 1.138 0 .474.09.853.09 1.138.18.664.722 1.043 1.354 1.043.633.095 1.175-.285 1.355-1.043zm11.47-2.275v4.172c0 .095-.09.19-.18.19h-.813c-.09 0-.18-.095-.18-.19v-3.888c0-.853-.452-1.328-1.175-1.328-.722 0-1.264.475-1.264 1.328v3.888c0 .095-.09.19-.18.19h-.814c-.09 0-.18-.095-.18-.19v-3.888c0-.853-.452-1.328-1.174-1.328-.723 0-1.174.475-1.174 1.328v3.888c0 .095-.09.19-.181.19h-.813c-.09 0-.18-.095-.18-.19v-6.069c0-.095.09-.19.18-.19h.813c.09 0 .18.095.18.19v.38c0 .094 0 .094.09 0 .362-.475.904-.665 1.536-.665.813 0 1.355.38 1.716.949h.09c.362-.664 1.084-.949 1.807-.949 1.174 0 1.897.76 1.897 2.182zm7.226 1.138c0 .664 0 1.138-.18 1.612-.271.948-1.084 1.707-2.168 1.707-.813 0-1.264-.38-1.535-.854 0-.094-.09-.094-.09 0v2.94c0 .095-.091.19-.181.19h-.813c-.09 0-.18-.095-.18-.19v-8.44c0-.095.09-.19.18-.19h.813c.09 0 .18.095.18.19v.664c0 .095 0 .095.09 0 .272-.57.813-.949 1.626-.949 1.084 0 1.897.76 2.168 1.802.09.475.09.854.09 1.518zm-1.174 0c0-.759 0-.949-.09-1.233-.09-.57-.632-1.043-1.265-1.043-.722 0-1.083.474-1.264 1.043-.09.284-.09.474-.09 1.233 0 .758 0 1.043.09 1.233.09.569.542 1.043 1.264 1.043.723 0 1.175-.474 1.265-1.043.09-.285.09-.475.09-1.233zm7.768-1.233v4.173c0 .094-.09.19-.181.19h-.813c-.09 0-.18-.096-.18-.19v-.38c0-.095 0-.095-.09 0-.452.474-1.085.664-1.807.664-1.084 0-1.987-.569-1.987-1.897 0-1.327.903-2.086 2.529-2.086h1.354s.09 0 .09-.095v-.284c0-.759-.36-1.138-1.264-1.138-.632 0-1.084.284-1.174.758 0 .095-.09.19-.18.19l-.904-.095c-.09 0-.18-.095-.18-.19.18-.948 1.084-1.612 2.438-1.612 1.445-.095 2.349.759 2.349 1.992zm-1.175 2.276v-.759s0-.095-.09-.095h-1.084c-.903 0-1.535.38-1.535 1.138 0 .664.542.949 1.174.949.813 0 1.535-.474 1.535-1.233zm8.039-2.086v4.077c0 .095-.09.19-.18.19h-.814c-.09 0-.18-.095-.18-.19v-3.888c0-.853-.542-1.422-1.265-1.422-.722 0-1.174.474-1.264 1.138v4.078c0 .094-.09.19-.18.19h-.814c-.09 0-.18-.096-.18-.19v-6.07c0-.095.09-.19.18-.19h.813c.09 0 .18.095.18.19v.38c0 .094 0 .094.091 0 .361-.475.903-.664 1.536-.664 1.264.094 2.077.948 2.077 2.37zm1.626 6.543v-.664c0-.095 0-.19.09-.19h.09c.904 0 1.265-.284 1.536-1.422v-.095l-1.987-6.164c0-.095 0-.19.18-.19h.813c.09 0 .18 0 .18.19l1.356 4.552c0 .095.09.095.09 0l1.264-4.552c0-.095.09-.19.181-.19h.813c.09 0 .18.095.18.19l-2.167 6.638c-.542 1.613-.903 2.087-2.529 2.087h-.09c.09 0 0 0 0-.19z" transform="translate(0 .95) translate(53.46 4.881)"/>
        </g>
    </g>
</svg>
