<svg xmlns="http://www.w3.org/2000/svg" width="142" height="35" viewBox="0 0 142 35">
    <g fill="none" fill-rule="evenodd">
        <g fill="#FFF" fill-rule="nonzero">
            <g>
                <g>
                    <g>
                        <path d="M142 19.668c0-.464-.309-.93-.772-1.239-.154-.155-.463-.155-.771-.155-.31 0-.464 0-.772.155-.155.155-.463.31-.463.465-.155.155-.155.464-.155.774s0 .465.155.774c.154.155.308.465.463.465.154.155.463.155.772.155.308 0 .463 0 .771-.155.155-.155.463-.31.463-.465.309-.31.309-.464.309-.774zm-.154 0c0 .155 0 .465-.155.62l-.463.464c-.154.155-.463.155-.617.155-.154 0-.463 0-.618-.155l-.463-.464c-.154-.155-.154-.31-.154-.62 0-.155 0-.464.154-.62l.463-.464c.155-.155.464-.155.618-.155.154 0 .463 0 .617.155.309.31.618.62.618 1.084zm-.772.62h.309l-.31-.465c.155 0 .155-.155.31-.155 0-.155.154-.155.154-.31 0-.154 0-.31-.154-.31-.155-.154-.31-.154-.463-.154h-.618v1.394h.155v-.465h.463l.154.465zm-.463-.62h-.309v-.62h.309c.154 0 .154 0 .309.156l.154.154c0 .155 0 .155-.154.31h-.31.001zm-10.187 8.053l5.402-9.447h-2.006l-4.477 7.28-4.321-7.28h-2.007l5.557 9.447v4.801h2.006v-4.8h-.154v-.001zm-16.207-7.588h4.63v-1.859h-11.42v1.859h4.63v12.39h2.16v-12.39zM102.796 33.76c0-.62-.463-1.239-1.235-1.239s-1.235.465-1.235 1.24c0 .619.463 1.238 1.235 1.238s1.235-.62 1.235-1.239zm-2.161-3.872h2.006V18.274h-2.006V29.89v-.002zm-60.35-9.756c-.772-.62-1.544-1.084-2.47-1.394-.926-.31-2.006-.465-2.932-.465-1.39 0-2.779.31-3.86.93-1.234.619-2.16 1.548-2.777 2.632-.618 1.084-1.08 2.323-1.08 3.717 0 1.394.308 2.633 1.08 3.717.617 1.084 1.543 2.013 2.778 2.633 1.235.62 2.47.929 3.859.929.926 0 2.006-.155 2.932-.465.926-.31 1.852-.774 2.624-1.394v-5.265h-1.698v4.336c-.463.31-1.08.62-1.698.775-.926 0-1.543.154-2.16.154-1.08 0-2.007-.31-2.933-.774-.926-.464-1.543-1.239-2.007-2.013-.463-.774-.771-1.859-.771-2.788 0-1.084.308-2.013.771-2.787.464-.775 1.235-1.55 2.007-2.014.926-.464 1.852-.774 2.933-.774.771 0 1.543.155 2.315.465.772.31 1.389.774 2.006 1.239l1.08-1.394h.001zm-20.992 12.39H21.3V18.118h-2.007v11.306l-8.334-11.15H9.107v14.247h2.006v-11.15l8.18 11.15v.001zM2.315 33.76c0-.62-.463-1.239-1.235-1.239-.771 0-1.08.62-1.08 1.24C0 34.38.463 35 1.235 35s1.08-.62 1.08-1.239v-.001zm-2.16-3.87H2.16V18.274H.154V29.89h.001zM56.8 18.274H46.767v14.248H57.11v-1.858h-8.335v-4.491h7.254v-1.859h-7.254v-4.491H56.8v-1.549zm7.872 0h-2.007v14.248h2.007v-11.15l8.335 11.15h2.006V18.12h-2.006v11.306l-8.335-11.15v-.002zm18.985 0H81.65v8.518c0 1.858.617 3.407 1.698 4.336 1.08.93 2.624 1.549 4.476 1.549 1.852 0 3.396-.465 4.476-1.549 1.08-1.084 1.698-2.478 1.698-4.336v-8.518H91.99v8.518c0 1.394-.308 2.323-1.08 3.097-.772.775-1.698 1.084-3.087 1.084-1.235 0-2.315-.31-3.087-1.084-.772-.774-1.08-1.858-1.08-3.097v-8.518h.001zM3.24 0H0v8.982h.926V6.04h2.315c1.08 0 1.852-.31 2.47-.775.617-.464.926-1.238.926-2.168 0-.929-.309-1.703-.926-2.168C5.093.31 4.32.155 3.24 0zm-.154 5.265H.927V.93H3.24c.772 0 1.544.155 1.852.62.464.31.618.774.618 1.548 0 .775-.154 1.24-.618 1.704-.463.31-1.08.464-2.006.464v-.001zM13.891 0c-.771 0-1.543.155-2.315.62-.617.31-1.235.929-1.543 1.548-.463.62-.618 1.549-.618 2.323s.155 1.549.618 2.323c.463.62.926 1.24 1.697 1.704.618.31 1.39.62 2.161.62.772 0 1.544-.156 2.316-.62.617-.465 1.234-.93 1.697-1.704.463-.62.618-1.549.618-2.323s-.155-1.549-.618-2.323c-.463-.62-.926-1.239-1.697-1.703C15.435.155 14.663 0 13.89 0h.001zm0 .774c.618 0 1.235.155 1.852.465.464.31.927.774 1.235 1.394.309.62.463 1.239.463 1.858 0 .62 0 1.394-.463 1.859-.308.619-.771 1.084-1.389 1.393-.463.31-1.08.465-1.698.465-.617 0-1.234-.155-1.852-.465-.463-.31-.926-.774-1.389-1.393-.309-.465-.463-1.24-.463-1.859 0-.62.154-1.239.463-1.858.463-.62.926-1.084 1.39-1.394.617-.31 1.234-.465 1.851-.465zm15.898 7.28L27.32 0h-.926l-2.47 8.053L21.61 0h-.926l2.932 8.982h.926l2.47-7.743 2.47 7.743h.926L33.185 0h-.926l-2.47 8.053v.001zm6.483.928h6.02v-.774h-5.094V4.801h4.476v-.774h-4.476V.929h4.939V0h-5.865v8.982zm16.206 0l-2.16-3.097c.617-.155 1.08-.465 1.543-1.084.309-.465.463-1.084.463-1.859 0-.929-.309-1.703-.926-2.168C50.78.31 50.008 0 48.928 0h-3.241v8.982h.926V6.04h2.933l1.852 2.942h1.08zm-5.865-3.717V.93h2.315c.772 0 1.39.155 1.852.62.463.31.618.929.618 1.703 0 .775-.155 1.24-.618 1.704-.463.31-1.08.62-1.852.62l-2.315-.31v-.002zm9.57 3.717h6.02v-.774h-5.094V4.801h4.476v-.774h-4.476V.929h4.939V0h-5.865v8.982zM69.148 0h-3.55v8.982h3.395c.772 0 1.544-.155 2.316-.62.617-.309 1.234-.928 1.543-1.548.463-.62.618-1.394.618-2.323 0-.774-.155-1.549-.618-2.323-.309-.62-.926-1.239-1.543-1.549C70.69.31 69.919 0 69.148 0zm0 8.208h-2.624V.929h2.624c.617 0 1.235.155 1.852.465.617.31.926.774 1.235 1.394.308.62.463 1.239.463 1.858 0 .62-.155 1.239-.463 1.704-.309.619-.772 1.084-1.235 1.393-.617.31-1.235.465-1.852.465zM86.28 0h-3.704v8.982h3.704c.927 0 1.698-.155 2.316-.62.617-.464.926-1.083.926-1.858 0-.619-.155-1.084-.463-1.548-.309-.465-.926-.62-1.544-.775.463-.154.926-.31 1.235-.774.309-.31.463-.774.463-1.394 0-.774-.309-1.239-.772-1.703-.617 0-1.234-.31-2.16-.31h-.001zm0 4.027h-2.778V.929h2.778c.618 0 1.08.155 1.39.465.308.155.463.464.463 1.084 0 .464-.155.93-.463 1.239-.31.155-.772.31-1.39.31zm0 4.181h-2.778V4.801h2.778c.772 0 1.235.155 1.698.464.463.31.618.775.618 1.24 0 .619-.155.929-.618 1.238-.463.31-.926.465-1.698.465zM98.32 0l-2.933 4.8L92.609 0h-.926l3.395 5.73v3.252h.926V5.885L99.4.155 98.32 0zm37.352 2.788l1.08-1.394c-.463-.465-1.08-.775-1.698-.93-.463-.31-1.08-.464-1.697-.464-.927 0-1.698.155-2.47.62-.772.464-1.39.929-1.698 1.703-.463.62-.617 1.394-.617 2.323 0 .774.154 1.549.617 2.323.463.62.926 1.239 1.698 1.704.772.464 1.543.619 2.47.619.617 0 1.234-.155 1.852-.31.617-.155 1.234-.464 1.698-.774V4.491h-1.698v2.323c-.309.155-.618.31-.926.31-.772.31-1.544.155-2.316-.31-.463-.31-.771-.62-1.08-1.084-.309-.465-.309-.93-.309-1.394 0-.464.155-.929.309-1.394.463-.929 1.39-1.393 2.47-1.393.463 0 .926.155 1.234.31.463.31.772.619 1.08.929h.001zm-11.268 6.194h2.007V.155h-2.007v3.717h-4.013V.155h-2.006v8.827h2.006V5.42h4.013v3.562zm-11.421-7.124h2.778V.155h-7.409v1.703h2.624v7.124h2.007V1.858z" transform="translate(-975 -3892) translate(0 3651) translate(375 66) translate(600 175)"/>
                    </g>
                </g>
            </g>
        </g>
    </g>
</svg>
