<svg xmlns="http://www.w3.org/2000/svg" width="470" height="500" viewBox="0 0 470 500">
    <defs>
        <linearGradient id="qwb9y7x5na" x1="50.001%" x2="50.001%" y1="77.665%" y2="2.122%">
            <stop offset="0%" stop-color="#C0BFF6"/>
            <stop offset="29.38%" stop-color="#C5C4F7"/>
            <stop offset="63.99%" stop-color="#D3D2F9"/>
            <stop offset="100%" stop-color="#E9E9FD"/>
        </linearGradient>
    </defs>
    <g fill="none" fill-rule="evenodd">
        <g>
            <g>
                <path d="M0 0H470V500H0z" transform="translate(-375 -2849) translate(375 2849)"/>
                <g fill-rule="nonzero">
                    <g>
                        <path fill="#CBCCF8" d="M98.694 116L198 57.82 99.319 0 0 58.18z" transform="translate(-375 -2849) translate(375 2849) matrix(-1 0 0 1 381 52) matrix(-1 0 0 1 289 0)"/>
                        <path fill="url(#qwb9y7x5na)" d="M98.739 115.762L0 58v254.251L98.713 370c.052 0 .287-.133.287-.133V115.602l-.261.16z" transform="translate(-375 -2849) translate(375 2849) matrix(-1 0 0 1 381 52) matrix(-1 0 0 1 289 0)"/>
                        <path fill="#453C9E" d="M198 58L99 115.928 99 370 198 312.059z" transform="translate(-375 -2849) translate(375 2849) matrix(-1 0 0 1 381 52) matrix(-1 0 0 1 289 0)"/>
                        <path fill="#50439B" d="M6 66v219.188L90.987 335 91 115.826 6 66zm2.059 3.924l80.114 46.952v206.619L8.059 276.542V69.924z" transform="translate(-375 -2849) translate(375 2849) matrix(-1 0 0 1 381 52) matrix(-1 0 0 1 289 0)"/>
                        <g fill="#3A347A">
                            <path d="M56.819 24.645L59.944 22.803 59.944.215 56.819 2.057zM51.209 27.929L54.347 26.087 54.347 3.512 51.209 5.341zM45.599 31.213L48.724 29.384 48.724 6.796 45.599 8.625zM39.989 34.511L43.127 32.668 43.127 10.08 39.989 11.909zM34.379 37.795L37.517 35.952 37.517 13.378 34.379 15.207zM28.769 41.079L31.907 39.236 31.907 16.662 28.769 18.491zM23.159 44.363L26.311 42.534 26.311 19.946 23.172 21.775zM17.562 47.647L20.701 45.818 20.701 23.23 17.562 25.059zM11.952 50.931L15.091 49.102 15.091 26.514 11.952 28.343zM6.342 54.215L9.481 52.386 9.481 29.798 6.342 31.627zM.732 57.512L3.871 55.67 3.871 33.082.732 34.911z" transform="translate(-375 -2849) translate(375 2849) matrix(-1 0 0 1 381 52) matrix(-1 0 0 1 289 0) translate(135 287)"/>
                        </g>
                        <g fill="#3A347A">
                            <path d="M28.671 24.292L31.808 22.477 31.808.224 28.671 2.039zM23.088 27.527L26.224 25.712 26.224 3.459 23.088 5.274zM17.518 30.763L20.641 28.948 20.641 6.694 17.518 8.509zM11.934 33.998L15.058 32.183 15.058 9.93 11.934 11.745zM6.351 37.234L9.475 35.419 9.475 13.165 6.351 14.993zM.768 40.482L3.904 38.654 3.904 16.414.768 18.229z" transform="translate(-375 -2849) translate(375 2849) matrix(-1 0 0 1 381 52) matrix(-1 0 0 1 289 0) translate(101 323)"/>
                        </g>
                        <g fill="#50439B">
                            <path d="M3.635 24.93L.497 23.101.497.676 3.635 2.505zM9.245 28.204L6.094 26.362 6.094 3.95 9.232 5.765zM14.842 31.451L11.704 29.635 11.704 7.21 14.842 9.026zM20.452 34.725L17.314 32.896 17.314 10.47 20.452 12.299zM26.062 37.985L22.924 36.156 22.924 13.744 26.062 15.56zM31.672 41.245L28.52 39.416 28.52 17.004 31.672 18.82zM37.282 44.519L34.13 42.69 34.13 20.265 37.269 22.081zM42.879 47.766L39.74 45.95 39.74 23.525 42.879 25.354zM48.489 51.027L45.35 49.211 45.35 26.786 48.489 28.615zM54.099 54.3L50.96 52.471 50.96 30.046 54.099 31.875zM59.709 57.561L56.57 55.732 56.57 33.306 59.696 35.135z" transform="translate(-375 -2849) translate(375 2849) matrix(-1 0 0 1 381 52) matrix(-1 0 0 1 289 0) translate(3 287)"/>
                        </g>
                        <g fill="#50439B">
                            <path d="M3.139 24.081L.028 22.266.028.013 3.139 1.828zM8.722 27.316L5.598 25.501 5.598 3.248 8.722 5.063zM14.305 30.552L11.182 28.75 11.182 6.484 14.305 8.299zM19.888 33.787L16.765 31.985 16.765 9.732 19.888 11.534zM25.472 37.036L22.348 35.221 22.348 12.968 25.472 14.783zM31.042 40.271L27.931 38.456 27.931 16.203 31.042 18.018z" transform="translate(-375 -2849) translate(375 2849) matrix(-1 0 0 1 381 52) matrix(-1 0 0 1 289 0) translate(65 324)"/>
                        </g>
                        <g>
                            <g>
                                <path fill="#CBCCF8" d="M82.083 0.464L87.978 3.873 6.885 51.313 0.599 47.626 0.599 47.493z" transform="translate(-375 -2849) translate(375 2849) matrix(-1 0 0 1 381 52) matrix(-1 0 0 1 289 0) translate(106 76)"/>
                                <path fill="#3A347A" d="M87.965 32.308L6.872 79.761 6.872 51.287 87.965 3.859z" transform="translate(-375 -2849) translate(375 2849) matrix(-1 0 0 1 381 52) matrix(-1 0 0 1 289 0) translate(106 76)"/>
                                <path fill="#A4A7F6" d="M6.924 79.668L0.599 75.968 0.599 47.6 6.924 51.3z" transform="translate(-375 -2849) translate(375 2849) matrix(-1 0 0 1 381 52) matrix(-1 0 0 1 289 0) translate(106 76)"/>
                            </g>
                            <g>
                                <g fill="#868FDB">
                                    <path d="M15.318 39.523L77.202 3.316v23.09L15.318 62.6V39.523zM.403 46.193v27.03L79.18 27.135V.12L.403 46.194z" transform="translate(-375 -2849) translate(375 2849) matrix(-1 0 0 1 381 52) matrix(-1 0 0 1 289 0) translate(106 76) translate(7.809 5.305)"/>
                                    <path d="M23.348 45.902c0-2.135 1.796-4.934 4.009-6.22L65.45 17.387c2.213-1.286 4.009-.61 4.009 1.539 0 2.135-1.796 4.92-4.009 6.207L27.344 47.427c-2.187 1.3-3.996.61-3.996-1.525zm-1.978 1.154c0 2.772 1.939 3.899 4.334 2.506l41.152-24.085c2.394-1.405 4.333-4.787 4.333-7.56 0-2.771-1.939-3.898-4.333-2.493L25.704 39.496c-2.395 1.393-4.334 4.775-4.334 7.56z" transform="translate(-375 -2849) translate(375 2849) matrix(-1 0 0 1 381 52) matrix(-1 0 0 1 289 0) translate(106 76) translate(7.809 5.305)"/>
                                    <path d="M70.916 19.257L78.295 14.934 78.295 13.249 70.916 17.573zM14.915 52.016L22.307 47.692 22.307 46.008 14.915 50.332z" transform="translate(-375 -2849) translate(375 2849) matrix(-1 0 0 1 381 52) matrix(-1 0 0 1 289 0) translate(106 76) translate(7.809 5.305)"/>
                                </g>
                                <g fill="#5D54B5">
                                    <path d="M11.375 7.865c0 .384.273.557.624.358.339-.2.612-.69.612-1.088V1.247c0-.385-.273-.557-.625-.358-.338.199-.611.69-.624 1.074v5.902h.013zM8.668 9.456c0 .385.273.557.611.345.339-.199.625-.676.625-1.074V2.838c0-.384-.273-.557-.625-.358-.338.199-.611.69-.611 1.074v5.902zM5.948 11.034c0 .398.273.558.624.359.339-.2.612-.677.612-1.075V4.43c0-.398-.273-.57-.612-.358-.338.199-.611.69-.624 1.074v5.888zM3.24 12.626c0 .398.287.557.625.358.339-.199.612-.676.625-1.074V6.02c0-.398-.273-.557-.625-.358-.338.2-.611.69-.611 1.074l-.013 5.889zM.52 14.204c0 .398.274.557.612.358.352-.199.625-.676.625-1.074V7.6c0-.384-.273-.557-.625-.344-.338.199-.611.676-.611 1.074v5.875z" transform="translate(-375 -2849) translate(375 2849) matrix(-1 0 0 1 381 52) matrix(-1 0 0 1 289 0) translate(106 76) translate(7.809 5.305) translate(1.301 55.703)"/>
                                </g>
                                <g fill="#42E8E0">
                                    <path d="M19.25 4.019c0 1.047.742 1.472 1.64.954.911-.53 1.64-1.816 1.64-2.864 0-1.061-.729-1.472-1.64-.955-.898.53-1.626 1.817-1.64 2.865zM14.487 6.817c0 1.048.73 1.472 1.64.942.898-.53 1.64-1.804 1.64-2.852 0-1.048-.729-1.472-1.64-.955-.91.53-1.64 1.817-1.64 2.865zM9.711 9.615c0 1.048.729 1.473 1.64.942.91-.53 1.64-1.817 1.64-2.865 0-1.047-.73-1.472-1.64-.955-.911.544-1.64 1.817-1.64 2.878zM4.935 12.4c0 1.048.728 1.473 1.64.955.897-.53 1.626-1.817 1.64-2.864 0-1.048-.73-1.472-1.64-.942-.899.53-1.64 1.804-1.64 2.852zM.158 15.199c0 1.048.73 1.472 1.64.942.898-.53 1.64-1.817 1.64-2.865 0-1.048-.729-1.472-1.64-.955-.898.544-1.64 1.83-1.64 2.878z" transform="translate(-375 -2849) translate(375 2849) matrix(-1 0 0 1 381 52) matrix(-1 0 0 1 289 0) translate(106 76) translate(7.809 5.305) translate(25.728 29.178)"/>
                                </g>
                                <path fill="#5D54B5" d="M1.978 55.531L14.147 48.409 14.147 40.358 1.978 47.48z" transform="translate(-375 -2849) translate(375 2849) matrix(-1 0 0 1 381 52) matrix(-1 0 0 1 289 0) translate(106 76) translate(7.809 5.305)"/>
                                <path fill="#42E8E0" d="M16.268 41.472L18.689 40.053 18.689 38.329 16.268 39.735z" transform="translate(-375 -2849) translate(375 2849) matrix(-1 0 0 1 381 52) matrix(-1 0 0 1 289 0) translate(106 76) translate(7.809 5.305)"/>
                                <g fill="#42E8E0">
                                    <path d="M.054 1.459L1.746.464 1.746.146.054 1.141zM.054 2.546L1.746 1.552 1.746 1.114.054 2.095zM.054 3.621L1.746 2.639 1.746 2.069.054 3.064zM.054 4.708L1.746 3.714 1.746 3.024.054 4.019zM.054 5.796L1.746 4.801 1.746 3.992.054 5z" transform="translate(-375 -2849) translate(375 2849) matrix(-1 0 0 1 381 52) matrix(-1 0 0 1 289 0) translate(106 76) translate(7.809 5.305) translate(11.412 43.767)"/>
                                </g>
                                <g fill="#42E8E0">
                                    <path d="M.054 1.883L1.746.889 1.746.57.054 1.565zM.054 3.011L1.746 2.016 1.746 1.618.054 2.599zM.054 4.138L1.746 3.143 1.746 2.666.054 3.66zM.054 5.265L1.746 4.271 1.746 3.714.054 4.695zM.054 6.379L1.746 5.398 1.746 4.761.054 5.743zM.054 7.507L1.746 6.525 1.746 5.809.054 6.79zM.054 8.634L1.746 7.653 1.746 6.844.054 7.838z" transform="translate(-375 -2849) translate(375 2849) matrix(-1 0 0 1 381 52) matrix(-1 0 0 1 289 0) translate(106 76) translate(7.809 5.305) translate(8.809 42.44)"/>
                                </g>
                                <g fill="#42E8E0">
                                    <path d="M.21 1.692L1.915.698 1.915.3.21 1.281zM.21 2.82L1.915 1.825 1.915 1.347.21 2.342zM.21 3.947L1.915 2.952 1.915 2.395.21 3.377zM.21 5.074L1.915 4.08 1.915 3.443.21 4.424zM.21 6.202L1.915 5.207 1.915 4.477.21 5.472zM.21 7.329L1.915 6.334 1.915 5.538.21 6.52z" transform="translate(-375 -2849) translate(375 2849) matrix(-1 0 0 1 381 52) matrix(-1 0 0 1 289 0) translate(106 76) translate(7.809 5.305) translate(2.301 47.42)"/>
                                </g>
                                <g fill="#42E8E0">
                                    <path d="M.21 1.472L1.902.491 1.902.159.21 1.141zM.21 2.573L1.902 1.565 1.902 1.101.21 2.082zM.21 3.674L1.902 2.679 1.902 2.029.21 3.024zM.21 4.761L1.902 3.767 1.902 2.971.21 3.966z" transform="translate(-375 -2849) translate(375 2849) matrix(-1 0 0 1 381 52) matrix(-1 0 0 1 289 0) translate(106 76) translate(7.809 5.305) translate(6.206 47.745)"/>
                                </g>
                                <path fill="#5D54B5" d="M9.683 54.987c0 1.406.989 1.976 2.2 1.26 1.223-.703 2.212-2.44 2.199-3.846 0-1.42-.99-1.99-2.2-1.274-1.223.703-2.2 2.427-2.2 3.86z" transform="translate(-375 -2849) translate(375 2849) matrix(-1 0 0 1 381 52) matrix(-1 0 0 1 289 0) translate(106 76) translate(7.809 5.305)"/>
                                <g fill="#5D54B5">
                                    <path d="M5.271 3.515L7.184 2.387 7.197.544 5.271 1.658zM2.993 4.854L4.906 3.727 4.906 1.883 2.993 2.997zM.677 6.207L2.59 5.08 2.59 3.236.677 4.35zM5.271 5.809L7.184 4.682 7.184 2.851 5.271 3.966zM2.993 7.149L4.906 6.021 4.906 4.178 2.993 5.305zM.677 8.501L2.59 7.387 2.59 5.544.677 6.658z" transform="translate(-375 -2849) translate(375 2849) matrix(-1 0 0 1 381 52) matrix(-1 0 0 1 289 0) translate(106 76) translate(7.809 5.305) translate(1.301 53.05)"/>
                                </g>
                            </g>
                            <path fill="#5D54B5" d="M2.382 72.68c0 .729.52 1.644 1.158 2.015.638.371 1.145.08 1.145-.663V55.756c0-.743-.52-1.645-1.145-2.016-.638-.371-1.158-.08-1.158.663V72.68z" transform="translate(-375 -2849) translate(375 2849) matrix(-1 0 0 1 381 52) matrix(-1 0 0 1 289 0) translate(106 76)"/>
                        </g>
                        <g>
                            <g>
                                <path fill="#CBCCF8" d="M82.083 0.133L87.978 3.541 6.885 50.981 0.599 47.294 0.599 47.162z" transform="translate(-375 -2849) translate(375 2849) matrix(-1 0 0 1 381 52) matrix(-1 0 0 1 289 0) translate(106 118)"/>
                                <path fill="#3A347A" d="M87.965 31.976L6.872 79.43 6.872 50.955 87.965 3.528z" transform="translate(-375 -2849) translate(375 2849) matrix(-1 0 0 1 381 52) matrix(-1 0 0 1 289 0) translate(106 118)"/>
                                <path fill="#A4A7F6" d="M6.924 79.337L0.599 75.637 0.599 47.268 6.924 50.968z" transform="translate(-375 -2849) translate(375 2849) matrix(-1 0 0 1 381 52) matrix(-1 0 0 1 289 0) translate(106 118)"/>
                            </g>
                            <g>
                                <g fill="#868FDB">
                                    <path d="M15.318 39.517L77.202 3.31V26.4L15.318 62.595V39.517zM.403 46.188v27.03L79.18 27.13V.114L.403 46.188z" transform="translate(-375 -2849) translate(375 2849) matrix(-1 0 0 1 381 52) matrix(-1 0 0 1 289 0) translate(106 118) translate(7.809 4.979)"/>
                                    <path d="M23.348 45.897c0-2.136 1.796-4.934 4.009-6.22L65.45 17.381c2.213-1.286 4.009-.61 4.009 1.538 0 2.136-1.796 4.92-4.009 6.207L27.344 47.422c-2.187 1.3-3.996.61-3.996-1.525zM21.37 47.05c0 2.772 1.939 3.9 4.334 2.507l41.152-24.085c2.394-1.406 4.333-4.788 4.333-7.56 0-2.771-1.939-3.899-4.333-2.493L25.704 39.491c-2.395 1.392-4.334 4.774-4.334 7.56z" transform="translate(-375 -2849) translate(375 2849) matrix(-1 0 0 1 381 52) matrix(-1 0 0 1 289 0) translate(106 118) translate(7.809 4.979)"/>
                                    <path d="M70.916 19.252L78.295 14.928 78.295 13.244 70.916 17.554zM14.915 52.011L22.307 47.687 22.307 46.003 14.915 50.326z" transform="translate(-375 -2849) translate(375 2849) matrix(-1 0 0 1 381 52) matrix(-1 0 0 1 289 0) translate(106 118) translate(7.809 4.979)"/>
                                </g>
                                <g fill="#5D54B5">
                                    <path d="M11.375 7.533c0 .385.273.557.624.358.339-.199.612-.69.612-1.087V.915c0-.384-.273-.557-.625-.358-.338.199-.611.69-.624 1.074v5.902h.013zM8.668 9.125c0 .384.273.557.611.345.339-.2.625-.677.625-1.075V2.507c0-.385-.273-.557-.625-.358-.338.198-.611.69-.611 1.074v5.902zM5.948 10.703c0 .398.273.557.624.358.339-.199.612-.676.612-1.074V4.098c0-.398-.273-.557-.612-.358-.338.199-.611.69-.624 1.074v5.889zM3.24 12.294c0 .398.287.557.625.359.339-.2.612-.677.625-1.075V5.69c0-.398-.273-.557-.625-.358-.338.199-.611.69-.611 1.074l-.013 5.888zM.52 13.873c0 .398.274.557.612.358.352-.2.625-.677.625-1.074V7.255c0-.385-.273-.557-.625-.345-.338.199-.611.676-.611 1.074v5.889z" transform="translate(-375 -2849) translate(375 2849) matrix(-1 0 0 1 381 52) matrix(-1 0 0 1 289 0) translate(106 118) translate(7.809 4.979) translate(1.301 56.03)"/>
                                </g>
                                <g fill="#42E8E0">
                                    <path d="M19.25 3.687c0 1.048.742 1.472 1.64.955.911-.53 1.64-1.817 1.64-2.865 0-1.06-.729-1.472-1.64-.955-.898.53-1.626 1.817-1.64 2.865zM14.487 6.485c0 1.048.73 1.473 1.64.942.898-.53 1.64-1.804 1.64-2.851 0-1.048-.729-1.473-1.64-.955-.91.53-1.64 1.817-1.64 2.864zM9.711 9.284c0 1.048.729 1.472 1.64.941.91-.53 1.64-1.817 1.64-2.864 0-1.048-.73-1.472-1.64-.955-.911.544-1.64 1.817-1.64 2.878zM4.935 12.069c0 1.048.728 1.472 1.64.955.897-.53 1.626-1.817 1.64-2.865 0-1.048-.73-1.472-1.64-.941-.899.53-1.64 1.803-1.64 2.851zM.158 14.867c0 1.048.73 1.473 1.64.942.898-.53 1.64-1.817 1.64-2.865 0-1.047-.729-1.472-1.64-.955-.898.544-1.64 1.83-1.64 2.878z" transform="translate(-375 -2849) translate(375 2849) matrix(-1 0 0 1 381 52) matrix(-1 0 0 1 289 0) translate(106 118) translate(7.809 4.979) translate(25.728 29.504)"/>
                                </g>
                                <path fill="#5D54B5" d="M1.978 55.525L14.147 48.403 14.147 40.353 1.978 47.475z" transform="translate(-375 -2849) translate(375 2849) matrix(-1 0 0 1 381 52) matrix(-1 0 0 1 289 0) translate(106 118) translate(7.809 4.979)"/>
                                <path fill="#42E8E0" d="M16.268 41.467L18.689 40.048 18.689 38.324 16.268 39.729z" transform="translate(-375 -2849) translate(375 2849) matrix(-1 0 0 1 381 52) matrix(-1 0 0 1 289 0) translate(106 118) translate(7.809 4.979)"/>
                                <g fill="#42E8E0">
                                    <path d="M.054 1.454L1.746.459 1.746.141.054 1.135zM.054 2.541L1.746 1.546 1.746 1.109.054 2.09zM.054 3.615L1.746 2.634 1.746 2.064.054 3.058zM.054 4.703L1.746 3.708 1.746 3.019.054 4.013zM.054 5.79L1.746 4.796 1.746 3.987.054 4.981z" transform="translate(-375 -2849) translate(375 2849) matrix(-1 0 0 1 381 52) matrix(-1 0 0 1 289 0) translate(106 118) translate(7.809 4.979) translate(11.412 43.767)"/>
                                </g>
                                <g fill="#42E8E0">
                                    <path d="M.054 1.552L1.746.557 1.746.239.054 1.233zM.054 2.679L1.746 1.684 1.746 1.286.054 2.268zM.054 3.806L1.746 2.812 1.746 2.334.054 3.329zM.054 4.934L1.746 3.939 1.746 3.382.054 4.363zM.054 6.048L1.746 5.066 1.746 4.43.054 5.411zM.054 7.175L1.746 6.194 1.746 5.477.054 6.459zM.054 8.302L1.746 7.321 1.746 6.512.054 7.507z" transform="translate(-375 -2849) translate(375 2849) matrix(-1 0 0 1 381 52) matrix(-1 0 0 1 289 0) translate(106 118) translate(7.809 4.979) translate(8.809 42.767)"/>
                                </g>
                                <g fill="#42E8E0">
                                    <path d="M.21 2.361L1.915 1.366 1.915.968.21 1.95zM.21 3.488L1.915 2.493 1.915 2.016.21 3.011zM.21 4.615L1.915 3.621 1.915 3.064.21 4.045zM.21 5.743L1.915 4.748 1.915 4.111.21 5.093zM.21 6.87L1.915 5.875 1.915 5.146.21 6.141zM.21 7.997L1.915 7.003 1.915 6.207.21 7.188z" transform="translate(-375 -2849) translate(375 2849) matrix(-1 0 0 1 381 52) matrix(-1 0 0 1 289 0) translate(106 118) translate(7.809 4.979) translate(2.301 46.745)"/>
                                </g>
                                <g fill="#42E8E0">
                                    <path d="M.21 1.467L1.902.485 1.902.154.21 1.135zM.21 2.568L1.902 1.56 1.902 1.095.21 2.077zM.21 3.668L1.902 2.674 1.902 2.024.21 3.019zM.21 4.756L1.902 3.761 1.902 2.966.21 3.96z" transform="translate(-375 -2849) translate(375 2849) matrix(-1 0 0 1 381 52) matrix(-1 0 0 1 289 0) translate(106 118) translate(7.809 4.979) translate(6.206 47.745)"/>
                                </g>
                                <path fill="#5D54B5" d="M9.683 54.981c0 1.406.989 1.977 2.2 1.26 1.223-.702 2.212-2.44 2.199-3.846 0-1.419-.99-1.99-2.2-1.273-1.223.703-2.2 2.427-2.2 3.86z" transform="translate(-375 -2849) translate(375 2849) matrix(-1 0 0 1 381 52) matrix(-1 0 0 1 289 0) translate(106 118) translate(7.809 4.979)"/>
                                <g fill="#5D54B5">
                                    <path d="M5.271 3.183L7.184 2.056 7.197.212 5.271 1.326zM2.993 4.523L4.906 3.395 4.906 1.552 2.993 2.666zM.677 5.875L2.59 4.748 2.59 2.905.677 4.019zM5.271 5.477L7.184 4.35 7.184 2.52 5.271 3.634zM2.993 6.817L4.906 5.69 4.906 3.846 2.993 4.973zM.677 8.17L2.59 7.056 2.59 5.212.677 6.326z" transform="translate(-375 -2849) translate(375 2849) matrix(-1 0 0 1 381 52) matrix(-1 0 0 1 289 0) translate(106 118) translate(7.809 4.979) translate(1.301 53.377)"/>
                                </g>
                            </g>
                            <path fill="#5D54B5" d="M2.382 72.334c0 .73.52 1.645 1.158 2.016.638.372 1.145.08 1.145-.663V55.411c0-.743-.52-1.644-1.145-2.016-.638-.371-1.158-.08-1.158.663v18.276z" transform="translate(-375 -2849) translate(375 2849) matrix(-1 0 0 1 381 52) matrix(-1 0 0 1 289 0) translate(106 118)"/>
                        </g>
                        <g>
                            <g>
                                <path fill="#CBCCF8" d="M82.083 0.133L87.978 3.546 6.885 51.251 0.599 47.545 0.599 47.411z" transform="translate(-375 -2849) translate(375 2849) matrix(-1 0 0 1 381 52) matrix(-1 0 0 1 289 0) translate(106 160)"/>
                                <path fill="#3A347A" d="M87.965 32.145L6.872 79.85 6.872 51.224 87.965 3.546z" transform="translate(-375 -2849) translate(375 2849) matrix(-1 0 0 1 381 52) matrix(-1 0 0 1 289 0) translate(106 160)"/>
                                <path fill="#A4A7F6" d="M6.924 79.756L0.599 76.037 0.599 47.518 6.924 51.238z" transform="translate(-375 -2849) translate(375 2849) matrix(-1 0 0 1 381 52) matrix(-1 0 0 1 289 0) translate(106 160)"/>
                            </g>
                            <g>
                                <g fill="#868FDB">
                                    <path d="M15.318 40.398L77.202 4v23.212L15.318 63.597V40.398zM.403 47.105v27.172L79.18 27.945V.787L.403 47.105z" transform="translate(-375 -2849) translate(375 2849) matrix(-1 0 0 1 381 52) matrix(-1 0 0 1 289 0) translate(106 160) translate(7.809 4.333)"/>
                                    <path d="M23.348 46.811c0-2.146 1.796-4.96 4.009-6.253L65.45 18.146c2.213-1.293 4.009-.613 4.009 1.546 0 2.147-1.796 4.947-4.009 6.24L27.344 48.345c-2.187 1.306-3.996.613-3.996-1.534zm-1.978 1.16c0 2.787 1.939 3.92 4.334 2.52L66.856 26.28c2.394-1.413 4.333-4.813 4.333-7.6 0-2.786-1.939-3.92-4.333-2.506L25.704 40.372c-2.395 1.4-4.334 4.8-4.334 7.6z" transform="translate(-375 -2849) translate(375 2849) matrix(-1 0 0 1 381 52) matrix(-1 0 0 1 289 0) translate(106 160) translate(7.809 4.333)"/>
                                    <path d="M70.916 20.026L78.295 15.679 78.295 13.986 70.916 18.319zM14.915 52.958L22.307 48.611 22.307 46.918 14.915 51.264z" transform="translate(-375 -2849) translate(375 2849) matrix(-1 0 0 1 381 52) matrix(-1 0 0 1 289 0) translate(106 160) translate(7.809 4.333)"/>
                                </g>
                                <g fill="#5D54B5">
                                    <path d="M11.375 7.24c0 .386.273.56.624.36.339-.2.612-.694.612-1.094V.586c0-.386-.273-.56-.625-.36-.338.2-.611.694-.624 1.08V7.24h.013zM8.668 8.84c0 .386.273.56.611.346.339-.2.625-.68.625-1.08v-5.92c0-.386-.273-.56-.625-.36-.338.2-.611.694-.611 1.08V8.84zM5.948 10.426c0 .4.273.56.624.36.339-.2.612-.68.612-1.08v-5.92c0-.4-.273-.573-.612-.36-.338.2-.611.694-.624 1.08v5.92zM3.24 12.026c0 .4.287.56.625.36.339-.2.612-.68.625-1.08v-5.92c0-.4-.273-.56-.625-.36-.338.2-.611.694-.611 1.08l-.013 5.92zM.52 13.613c0 .4.274.56.612.36.352-.2.625-.68.625-1.08v-5.92c0-.387-.273-.56-.625-.347-.338.2-.611.68-.611 1.08v5.907z" transform="translate(-375 -2849) translate(375 2849) matrix(-1 0 0 1 381 52) matrix(-1 0 0 1 289 0) translate(106 160) translate(7.809 4.333) translate(1.301 57.33)"/>
                                </g>
                                <g fill="#42E8E0">
                                    <path d="M19.25 3.373c0 1.053.742 1.48 1.64.96.911-.533 1.64-1.826 1.64-2.88 0-1.066-.729-1.48-1.64-.96-.898.534-1.626 1.827-1.64 2.88zM14.487 6.186c0 1.054.73 1.48 1.64.947.898-.533 1.64-1.813 1.64-2.867 0-1.053-.729-1.48-1.64-.96-.91.534-1.64 1.827-1.64 2.88zM9.711 9c0 1.053.729 1.48 1.64.946.91-.533 1.64-1.826 1.64-2.88 0-1.053-.73-1.48-1.64-.96C10.44 6.653 9.71 7.933 9.71 9zM4.935 11.8c0 1.053.728 1.48 1.64.96.897-.534 1.626-1.827 1.64-2.88 0-1.054-.73-1.48-1.64-.947-.899.533-1.64 1.813-1.64 2.866zM.158 14.613c0 1.053.73 1.48 1.64.946.898-.533 1.64-1.826 1.64-2.88 0-1.053-.729-1.48-1.64-.96-.898.547-1.64 1.84-1.64 2.894z" transform="translate(-375 -2849) translate(375 2849) matrix(-1 0 0 1 381 52) matrix(-1 0 0 1 289 0) translate(106 160) translate(7.809 4.333) translate(25.728 30.665)"/>
                                </g>
                                <path fill="#5D54B5" d="M1.978 56.491L14.147 49.331 14.147 41.238 1.978 48.398z" transform="translate(-375 -2849) translate(375 2849) matrix(-1 0 0 1 381 52) matrix(-1 0 0 1 289 0) translate(106 160) translate(7.809 4.333)"/>
                                <path fill="#42E8E0" d="M16.268 42.358L18.689 40.932 18.689 39.198 16.268 40.612z" transform="translate(-375 -2849) translate(375 2849) matrix(-1 0 0 1 381 52) matrix(-1 0 0 1 289 0) translate(106 160) translate(7.809 4.333)"/>
                                <g fill="#42E8E0">
                                    <path d="M.054 2.133L1.746 1.133 1.746.813.054 1.813zM.054 3.227L1.746 2.227 1.746 1.787.054 2.773zM.054 4.306L1.746 3.32 1.746 2.747.054 3.747zM.054 5.4L1.746 4.4 1.746 3.707.054 4.706zM.054 6.493L1.746 5.493 1.746 4.68.054 5.68z" transform="translate(-375 -2849) translate(375 2849) matrix(-1 0 0 1 381 52) matrix(-1 0 0 1 289 0) translate(106 160) translate(7.809 4.333) translate(11.412 43.998)"/>
                                </g>
                                <g fill="#42E8E0">
                                    <path d="M.054 1.56L1.746.56 1.746.24.054 1.24zM.054 2.693L1.746 1.693 1.746 1.293.054 2.28zM.054 3.826L1.746 2.826 1.746 2.347.054 3.346zM.054 4.96L1.746 3.96 1.746 3.4.054 4.386zM.054 6.08L1.746 5.093 1.746 4.453.054 5.44zM.054 7.213L1.746 6.226 1.746 5.506.054 6.493zM.054 8.346L1.746 7.36 1.746 6.546.054 7.546z" transform="translate(-375 -2849) translate(375 2849) matrix(-1 0 0 1 381 52) matrix(-1 0 0 1 289 0) translate(106 160) translate(7.809 4.333) translate(8.809 43.665)"/>
                                </g>
                                <g fill="#42E8E0">
                                    <path d="M.21 2.04L1.915 1.04 1.915.64.21 1.627zM.21 3.173L1.915 2.173 1.915 1.693.21 2.693zM.21 4.306L1.915 3.307 1.915 2.747.21 3.733zM.21 5.44L1.915 4.44 1.915 3.8.21 4.786zM.21 6.573L1.915 5.573 1.915 4.84.21 5.84zM.21 7.693L1.915 6.706 1.915 5.906.21 6.893z" transform="translate(-375 -2849) translate(375 2849) matrix(-1 0 0 1 381 52) matrix(-1 0 0 1 289 0) translate(106 160) translate(7.809 4.333) translate(2.301 47.998)"/>
                                </g>
                                <g fill="#42E8E0">
                                    <path d="M.21 2.147L1.902 1.16 1.902.827.21 1.813zM.21 3.253L1.902 2.24 1.902 1.773.21 2.76zM.21 4.36L1.902 3.36 1.902 2.707.21 3.707zM.21 5.453L1.902 4.453 1.902 3.653.21 4.653z" transform="translate(-375 -2849) translate(375 2849) matrix(-1 0 0 1 381 52) matrix(-1 0 0 1 289 0) translate(106 160) translate(7.809 4.333) translate(6.206 47.998)"/>
                                </g>
                                <path fill="#5D54B5" d="M9.683 55.944c0 1.413.989 1.987 2.2 1.267 1.223-.707 2.212-2.453 2.199-3.867 0-1.426-.99-2-2.2-1.28-1.223.707-2.2 2.44-2.2 3.88z" transform="translate(-375 -2849) translate(375 2849) matrix(-1 0 0 1 381 52) matrix(-1 0 0 1 289 0) translate(106 160) translate(7.809 4.333)"/>
                                <g fill="#5D54B5">
                                    <path d="M5.271 3.2L7.184 2.067 7.197.213 5.271 1.333zM2.993 4.546L4.906 3.413 4.906 1.56 2.993 2.68zM.677 5.906L2.59 4.773 2.59 2.92.677 4.04zM5.271 5.506L7.184 4.373 7.184 2.533 5.271 3.653zM2.993 6.853L4.906 5.72 4.906 3.866 2.993 5zM.677 8.213L2.59 7.093 2.59 5.226.677 6.36z" transform="translate(-375 -2849) translate(375 2849) matrix(-1 0 0 1 381 52) matrix(-1 0 0 1 289 0) translate(106 160) translate(7.809 4.333) translate(1.301 54.331)"/>
                                </g>
                            </g>
                            <path fill="#5D54B5" d="M2.382 72.717c0 .733.52 1.653 1.158 2.026.638.374 1.145.08 1.145-.666V55.704c0-.746-.52-1.653-1.145-2.026-.638-.374-1.158-.08-1.158.666v18.373z" transform="translate(-375 -2849) translate(375 2849) matrix(-1 0 0 1 381 52) matrix(-1 0 0 1 289 0) translate(106 160)"/>
                        </g>
                        <g>
                            <g>
                                <path fill="#CBCCF8" d="M82.083 0.8L87.978 4.213 6.885 51.918 0.599 48.211 0.599 48.078z" transform="translate(-375 -2849) translate(375 2849) matrix(-1 0 0 1 381 52) matrix(-1 0 0 1 289 0) translate(106 202)"/>
                                <path fill="#3A347A" d="M87.965 32.812L6.872 80.516 6.872 51.891 87.965 4.213z" transform="translate(-375 -2849) translate(375 2849) matrix(-1 0 0 1 381 52) matrix(-1 0 0 1 289 0) translate(106 202)"/>
                                <path fill="#A4A7F6" d="M6.924 80.423L0.599 76.703 0.599 48.185 6.924 51.904z" transform="translate(-375 -2849) translate(375 2849) matrix(-1 0 0 1 381 52) matrix(-1 0 0 1 289 0) translate(106 202)"/>
                            </g>
                            <g>
                                <g fill="#868FDB">
                                    <path d="M15.318 40.065L77.202 3.667v23.212L15.318 63.264v-23.2zM.403 46.77v27.172l78.777-46.33V.452L.403 46.771z" transform="translate(-375 -2849) translate(375 2849) matrix(-1 0 0 1 381 52) matrix(-1 0 0 1 289 0) translate(106 202) translate(7.809 5.333)"/>
                                    <path d="M23.348 46.478c0-2.147 1.796-4.96 4.009-6.253L65.45 17.813c2.213-1.294 4.009-.614 4.009 1.546 0 2.147-1.796 4.947-4.009 6.24L27.344 48.01c-2.187 1.307-3.996.614-3.996-1.533zm-1.978 1.16c0 2.786 1.939 3.92 4.334 2.52l41.152-24.212c2.394-1.414 4.333-4.814 4.333-7.6 0-2.787-1.939-3.92-4.333-2.507l-41.152 24.2c-2.395 1.4-4.334 4.799-4.334 7.599z" transform="translate(-375 -2849) translate(375 2849) matrix(-1 0 0 1 381 52) matrix(-1 0 0 1 289 0) translate(106 202) translate(7.809 5.333)"/>
                                    <path d="M70.916 19.692L78.295 15.346 78.295 13.653 70.916 17.986zM14.915 52.624L22.307 48.278 22.307 46.585 14.915 50.931z" transform="translate(-375 -2849) translate(375 2849) matrix(-1 0 0 1 381 52) matrix(-1 0 0 1 289 0) translate(106 202) translate(7.809 5.333)"/>
                                </g>
                                <g fill="#5D54B5">
                                    <path d="M11.375 7.24c0 .386.273.56.624.36.339-.2.612-.694.612-1.094V.586c0-.386-.273-.56-.625-.36-.338.2-.611.694-.624 1.08V7.24h.013zM8.668 8.84c0 .386.273.56.611.346.339-.2.625-.68.625-1.08v-5.92c0-.386-.273-.56-.625-.36-.338.2-.611.694-.611 1.08V8.84zM5.948 10.426c0 .4.273.56.624.36.339-.2.612-.68.612-1.08v-5.92c0-.4-.273-.56-.612-.36-.338.2-.611.694-.624 1.08v5.92zM3.24 12.026c0 .4.287.56.625.36.339-.2.612-.68.625-1.08v-5.92c0-.4-.273-.56-.625-.36-.338.2-.611.694-.611 1.08l-.013 5.92zM.52 13.613c0 .4.274.56.612.36.352-.2.625-.68.625-1.08V6.96c0-.387-.273-.56-.625-.347-.338.2-.611.68-.611 1.08v5.92z" transform="translate(-375 -2849) translate(375 2849) matrix(-1 0 0 1 381 52) matrix(-1 0 0 1 289 0) translate(106 202) translate(7.809 5.333) translate(1.301 56.998)"/>
                                </g>
                                <g fill="#42E8E0">
                                    <path d="M19.25 3.373c0 1.053.742 1.48 1.64.96.911-.533 1.64-1.826 1.64-2.88 0-1.066-.729-1.48-1.64-.96-.898.534-1.626 1.827-1.64 2.88zM14.487 6.186c0 1.054.73 1.48 1.64.947.898-.533 1.64-1.813 1.64-2.867 0-1.053-.729-1.48-1.64-.96-.91.534-1.64 1.827-1.64 2.88zM9.711 9c0 1.053.729 1.48 1.64.946.91-.533 1.64-1.826 1.64-2.88 0-1.053-.73-1.48-1.64-.96C10.44 6.653 9.71 7.933 9.71 9zM4.935 11.8c0 1.053.728 1.48 1.64.96.897-.534 1.626-1.827 1.64-2.88 0-1.054-.73-1.48-1.64-.947-.899.533-1.64 1.813-1.64 2.866zM.158 14.613c0 1.053.73 1.48 1.64.946.898-.533 1.64-1.826 1.64-2.88 0-1.053-.729-1.48-1.64-.96-.898.547-1.64 1.84-1.64 2.894z" transform="translate(-375 -2849) translate(375 2849) matrix(-1 0 0 1 381 52) matrix(-1 0 0 1 289 0) translate(106 202) translate(7.809 5.333) translate(25.728 30.332)"/>
                                </g>
                                <path fill="#5D54B5" d="M1.978 56.158L14.147 48.998 14.147 40.905 1.978 48.065z" transform="translate(-375 -2849) translate(375 2849) matrix(-1 0 0 1 381 52) matrix(-1 0 0 1 289 0) translate(106 202) translate(7.809 5.333)"/>
                                <path fill="#42E8E0" d="M16.268 42.025L18.689 40.598 18.689 38.865 16.268 40.278z" transform="translate(-375 -2849) translate(375 2849) matrix(-1 0 0 1 381 52) matrix(-1 0 0 1 289 0) translate(106 202) translate(7.809 5.333)"/>
                                <g fill="#42E8E0">
                                    <path d="M.054 1.8L1.746.8 1.746.48.054 1.48zM.054 2.893L1.746 1.893 1.746 1.453.054 2.44zM.054 3.973L1.746 2.987 1.746 2.413.054 3.413zM.054 5.066L1.746 4.066 1.746 3.373.054 4.373zM.054 6.16L1.746 5.16 1.746 4.346.054 5.346z" transform="translate(-375 -2849) translate(375 2849) matrix(-1 0 0 1 381 52) matrix(-1 0 0 1 289 0) translate(106 202) translate(7.809 5.333) translate(11.412 43.998)"/>
                                </g>
                                <g fill="#42E8E0">
                                    <path d="M.054 2.227L1.746 1.227 1.746.907.054 1.907zM.054 3.36L1.746 2.36 1.746 1.96.054 2.947zM.054 4.493L1.746 3.493 1.746 3.013.054 4.013zM.054 5.626L1.746 4.626 1.746 4.066.054 5.053zM.054 6.746L1.746 5.76 1.746 5.12.054 6.106zM.054 7.88L1.746 6.893 1.746 6.173.054 7.16zM.054 9.013L1.746 8.026 1.746 7.213.054 8.213z" transform="translate(-375 -2849) translate(375 2849) matrix(-1 0 0 1 381 52) matrix(-1 0 0 1 289 0) translate(106 202) translate(7.809 5.333) translate(8.809 42.665)"/>
                                </g>
                                <g fill="#42E8E0">
                                    <path d="M.21 1.707L1.915.707 1.915.307.21 1.293zM.21 2.84L1.915 1.84 1.915 1.36.21 2.36zM.21 3.973L1.915 2.973 1.915 2.413.21 3.4zM.21 5.106L1.915 4.106 1.915 3.467.21 4.453zM.21 6.226L1.915 5.24 1.915 4.506.21 5.506zM.21 7.36L1.915 6.373 1.915 5.573.21 6.56z" transform="translate(-375 -2849) translate(375 2849) matrix(-1 0 0 1 381 52) matrix(-1 0 0 1 289 0) translate(106 202) translate(7.809 5.333) translate(2.301 47.998)"/>
                                </g>
                                <g fill="#42E8E0">
                                    <path d="M.21 1.813L1.902.827 1.902.493.21 1.48zM.21 2.92L1.902 1.907 1.902 1.44.21 2.427zM.21 4.026L1.902 3.027 1.902 2.373.21 3.373zM.21 5.12L1.902 4.12 1.902 3.32.21 4.32z" transform="translate(-375 -2849) translate(375 2849) matrix(-1 0 0 1 381 52) matrix(-1 0 0 1 289 0) translate(106 202) translate(7.809 5.333) translate(6.206 47.998)"/>
                                </g>
                                <path fill="#5D54B5" d="M9.683 55.61c0 1.414.989 1.987 2.2 1.268 1.223-.72 2.212-2.454 2.199-3.867 0-1.427-.99-2-2.2-1.28-1.223.707-2.2 2.44-2.2 3.88z" transform="translate(-375 -2849) translate(375 2849) matrix(-1 0 0 1 381 52) matrix(-1 0 0 1 289 0) translate(106 202) translate(7.809 5.333)"/>
                                <g fill="#5D54B5">
                                    <path d="M5.271 3.866L7.184 2.733 7.197.88 5.271 2zM2.993 5.213L4.906 4.08 4.906 2.227 2.993 3.347zM.677 6.573L2.59 5.44 2.59 3.587.677 4.706zM5.271 6.173L7.184 5.04 7.184 3.2 5.271 4.32zM2.993 7.52L4.906 6.386 4.906 4.533 2.993 5.666zM.677 8.88L2.59 7.76 2.59 5.893.677 7.026z" transform="translate(-375 -2849) translate(375 2849) matrix(-1 0 0 1 381 52) matrix(-1 0 0 1 289 0) translate(106 202) translate(7.809 5.333) translate(1.301 53.331)"/>
                                </g>
                            </g>
                            <path fill="#5D54B5" d="M2.382 73.383c0 .734.52 1.654 1.158 2.027.638.373 1.145.08 1.145-.667V56.371c0-.747-.52-1.653-1.145-2.027-.638-.373-1.158-.08-1.158.667v18.372z" transform="translate(-375 -2849) translate(375 2849) matrix(-1 0 0 1 381 52) matrix(-1 0 0 1 289 0) translate(106 202)"/>
                        </g>
                        <g>
                            <g>
                                <path fill="#CBCCF8" d="M82.083 0.332L87.978 3.74 6.885 51.18 0.599 47.493 0.599 47.374z" transform="translate(-375 -2849) translate(375 2849) matrix(-1 0 0 1 381 52) matrix(-1 0 0 1 289 0) translate(106 243)"/>
                                <path fill="#3A347A" d="M87.965 32.188L6.872 79.629 6.872 51.167 87.965 3.727z" transform="translate(-375 -2849) translate(375 2849) matrix(-1 0 0 1 381 52) matrix(-1 0 0 1 289 0) translate(106 243)"/>
                                <path fill="#A4A7F6" d="M6.924 79.549L0.599 75.849 0.599 47.467 6.924 51.167z" transform="translate(-375 -2849) translate(375 2849) matrix(-1 0 0 1 381 52) matrix(-1 0 0 1 289 0) translate(106 243)"/>
                            </g>
                            <g>
                                <g fill="#868FDB">
                                    <path d="M15.318 39.73L77.202 3.522v23.09L15.318 62.806V39.73zM.403 46.386v27.03L79.18 27.329V.313L.403 46.387z" transform="translate(-375 -2849) translate(375 2849) matrix(-1 0 0 1 381 52) matrix(-1 0 0 1 289 0) translate(106 243) translate(7.809 4.979)"/>
                                    <path d="M23.348 46.109c0-2.135 1.796-4.934 4.009-6.22L65.45 17.594c2.213-1.286 4.009-.61 4.009 1.539 0 2.135-1.796 4.92-4.009 6.207L27.344 47.634c-2.187 1.286-3.996.61-3.996-1.525zm-1.978 1.14c0 2.772 1.939 3.9 4.334 2.507l41.152-24.085c2.394-1.406 4.333-4.788 4.333-7.56 0-2.771-1.939-3.899-4.333-2.493L25.704 39.69c-2.395 1.392-4.334 4.787-4.334 7.56z" transform="translate(-375 -2849) translate(375 2849) matrix(-1 0 0 1 381 52) matrix(-1 0 0 1 289 0) translate(106 243) translate(7.809 4.979)"/>
                                    <path d="M70.916 19.451L78.295 15.141 78.295 13.443 70.916 17.767zM14.915 52.223L22.307 47.899 22.307 46.202 14.915 50.525z" transform="translate(-375 -2849) translate(375 2849) matrix(-1 0 0 1 381 52) matrix(-1 0 0 1 289 0) translate(106 243) translate(7.809 4.979)"/>
                                </g>
                                <g fill="#5D54B5">
                                    <path d="M11.375 7.745c0 .385.273.557.624.358.339-.198.612-.69.612-1.087V1.127c0-.384-.273-.557-.625-.358-.338.2-.611.69-.624 1.075v5.901h.013zM8.668 9.337c0 .384.273.557.611.345.339-.2.625-.677.625-1.075V2.72c0-.385-.273-.557-.625-.358-.338.199-.611.69-.611 1.074v5.902zM5.948 10.915c0 .398.273.557.624.358.339-.199.612-.676.612-1.074V4.31c0-.398-.273-.557-.612-.358-.338.2-.611.69-.624 1.075v5.888zM3.24 12.493c0 .398.287.557.625.358.339-.198.612-.676.625-1.074V5.89c0-.398-.273-.557-.625-.358-.338.198-.611.69-.611 1.074l-.013 5.888zM.52 14.085c0 .398.274.557.612.358.352-.199.625-.676.625-1.074V7.48c0-.385-.273-.557-.625-.345-.338.2-.611.677-.611 1.075v5.875z" transform="translate(-375 -2849) translate(375 2849) matrix(-1 0 0 1 381 52) matrix(-1 0 0 1 289 0) translate(106 243) translate(7.809 4.979) translate(1.301 56.03)"/>
                                </g>
                                <g fill="#42E8E0">
                                    <path d="M19.25 3.9c0 1.047.742 1.471 1.64.954.911-.53 1.64-1.817 1.64-2.865 0-1.06-.729-1.472-1.64-.955-.898.531-1.626 1.817-1.64 2.865zM14.487 6.698c0 1.047.73 1.472 1.64.941.898-.53 1.64-1.803 1.64-2.851s-.729-1.472-1.64-.955c-.91.517-1.64 1.817-1.64 2.865zM9.711 9.483c0 1.048.729 1.472 1.64.941.91-.53 1.64-1.817 1.64-2.864 0-1.048-.73-1.472-1.64-.955-.911.544-1.64 1.83-1.64 2.878zM4.935 12.281c0 1.048.728 1.472 1.64.955.897-.53 1.626-1.817 1.64-2.865 0-1.047-.73-1.472-1.64-.941-.899.517-1.64 1.803-1.64 2.851zM.158 15.08c0 1.047.73 1.472 1.64.941.898-.53 1.64-1.817 1.64-2.864 0-1.048-.729-1.473-1.64-.955-.898.53-1.64 1.817-1.64 2.878z" transform="translate(-375 -2849) translate(375 2849) matrix(-1 0 0 1 381 52) matrix(-1 0 0 1 289 0) translate(106 243) translate(7.809 4.979) translate(25.728 29.504)"/>
                                </g>
                                <path fill="#5D54B5" d="M1.978 55.724L14.147 48.602 14.147 40.552 1.978 47.674z" transform="translate(-375 -2849) translate(375 2849) matrix(-1 0 0 1 381 52) matrix(-1 0 0 1 289 0) translate(106 243) translate(7.809 4.979)"/>
                                <path fill="#42E8E0" d="M16.268 41.666L18.689 40.247 18.689 38.523 16.268 39.942z" transform="translate(-375 -2849) translate(375 2849) matrix(-1 0 0 1 381 52) matrix(-1 0 0 1 289 0) translate(106 243) translate(7.809 4.979)"/>
                                <g fill="#42E8E0">
                                    <path d="M.054 1.34L1.746.345 1.746.013.054 1.008zM.054 2.414L1.746 1.419 1.746.981.054 1.976zM.054 3.501L1.746 2.507 1.746 1.95.054 2.931zM.054 4.576L1.746 3.594 1.746 2.905.054 3.899zM.054 5.663L1.746 4.668 1.746 3.873.054 4.867z" transform="translate(-375 -2849) translate(375 2849) matrix(-1 0 0 1 381 52) matrix(-1 0 0 1 289 0) translate(106 243) translate(7.809 4.979) translate(11.412 44.093)"/>
                                </g>
                                <g fill="#42E8E0">
                                    <path d="M.054 1.751L1.746.769 1.746.438.054 1.432zM.054 2.878L1.746 1.883 1.746 1.485.054 2.48zM.054 4.005L1.746 3.024 1.746 2.533.054 3.528zM.054 5.133L1.746 4.151 1.746 3.581.054 4.576zM.054 6.26L1.746 5.265 1.746 4.629.054 5.623zM.054 7.387L1.746 6.393 1.746 5.676.054 6.658zM.054 8.515L1.746 7.52 1.746 6.724.054 7.719z" transform="translate(-375 -2849) translate(375 2849) matrix(-1 0 0 1 381 52) matrix(-1 0 0 1 289 0) translate(106 243) translate(7.809 4.979) translate(8.809 42.767)"/>
                                </g>
                                <g fill="#42E8E0">
                                    <path d="M.21 1.56L1.915.578 1.915.167.21 1.162zM.21 2.687L1.915 1.706 1.915 1.228.21 2.21zM.21 3.814L1.915 2.82 1.915 2.263.21 3.257zM.21 4.942L1.915 3.947 1.915 3.31.21 4.305zM.21 6.069L1.915 5.074 1.915 4.358.21 5.353zM.21 7.196L1.915 6.202 1.915 5.406.21 6.401z" transform="translate(-375 -2849) translate(375 2849) matrix(-1 0 0 1 381 52) matrix(-1 0 0 1 289 0) translate(106 243) translate(7.809 4.979) translate(2.301 47.745)"/>
                                </g>
                                <g fill="#42E8E0">
                                    <path d="M.21 1.353L1.902.358 1.902.027.21 1.021zM.21 2.44L1.902 1.446 1.902.968.21 1.963zM.21 3.541L1.902 2.546 1.902 1.91.21 2.891zM.21 4.642L1.902 3.647 1.902 2.851.21 3.833z" transform="translate(-375 -2849) translate(375 2849) matrix(-1 0 0 1 381 52) matrix(-1 0 0 1 289 0) translate(106 243) translate(7.809 4.979) translate(6.206 48.072)"/>
                                </g>
                                <path fill="#5D54B5" d="M9.683 55.18c0 1.406.989 1.977 2.2 1.26 1.223-.716 2.212-2.44 2.199-3.846 0-1.419-.99-1.99-2.2-1.273-1.223.716-2.2 2.44-2.2 3.86z" transform="translate(-375 -2849) translate(375 2849) matrix(-1 0 0 1 381 52) matrix(-1 0 0 1 289 0) translate(106 243) translate(7.809 4.979)"/>
                                <g fill="#5D54B5">
                                    <path d="M5.271 3.382L7.184 2.268 7.197.411 5.271 1.538zM2.993 4.721L4.906 3.607 4.906 1.751 2.993 2.878zM.677 6.074L2.59 4.96 2.59 3.103.677 4.231zM5.271 5.69L7.184 4.562 7.184 2.719 5.271 3.833zM2.993 7.016L4.906 5.902 4.906 4.045 2.993 5.172zM.677 8.369L2.59 7.255 2.59 5.411.677 6.538z" transform="translate(-375 -2849) translate(375 2849) matrix(-1 0 0 1 381 52) matrix(-1 0 0 1 289 0) translate(106 243) translate(7.809 4.979) translate(1.301 53.377)"/>
                                </g>
                            </g>
                            <path fill="#5D54B5" d="M2.382 72.546c0 .73.52 1.645 1.158 2.016.638.372 1.145.08 1.145-.663V55.623c0-.742-.52-1.644-1.145-2.016-.638-.37-1.158-.08-1.158.664v18.275z" transform="translate(-375 -2849) translate(375 2849) matrix(-1 0 0 1 381 52) matrix(-1 0 0 1 289 0) translate(106 243)"/>
                        </g>
                        <g>
                            <path fill="#5D54B5" d="M52.086 74.347c10.44 6.077 27.44 6.05 37.946-.067l36.889-21.463c10.519-6.104 10.571-15.995.117-22.085L90.385 9.414c-10.44-6.077-27.454-6.038-37.96.08l-36.888 21.45c-10.52 6.117-10.571 16.008-.118 22.085l36.667 21.318z" transform="translate(-375 -2849) translate(375 2849) matrix(-1 0 0 1 381 52) matrix(-1 0 0 1 289 0) translate(26 16)"/>
                            <g fill="#50439B">
                                <path d="M3.587 45.806L78.788 2.059 75.299.033.111 43.767zM10.891 50.043L86.079 6.309 82.59 4.283 7.402 48.03zM18.183 54.293L93.384 10.546 89.895 8.52 14.707 52.267zM25.487 58.53L100.675 14.796 97.199 12.77 22.011 56.504zM32.792 62.781L107.98 19.033 104.478 17.021 29.303 60.755zM40.083 67.031L115.271 23.283 111.782 21.258 36.607 65.005zM47.374 71.281L122.563 27.534 119.087 25.508 43.899 69.242zM54.679 75.518L129.867 31.771 126.378 29.758 51.19 73.492zM61.983 79.768L137.159 36.034 133.683 33.995 58.481 77.729z" transform="translate(-375 -2849) translate(375 2849) matrix(-1 0 0 1 381 52) matrix(-1 0 0 1 289 0) translate(26 16) translate(1 2.324)"/>
                            </g>
                            <path fill="#50439B" d="M9.565 53.85l40.508 23.582c11.551 6.713 30.342 6.673 41.959-.08l40.77-23.714c11.616-6.766 11.681-17.676.13-24.403L92.41 5.654c-11.552-6.713-30.33-6.674-41.959.08L9.67 29.46C-1.934 36.213-2 47.137 9.565 53.85zm9.121-1.814c-9.84-5.72-9.787-15.028.118-20.788l34.732-20.205c9.905-5.76 25.899-5.786 35.752-.066l34.51 20.072c9.84 5.734 9.8 15.029-.105 20.802L88.961 72.056c-9.905 5.76-25.912 5.786-35.739.066L18.686 52.036z" transform="translate(-375 -2849) translate(375 2849) matrix(-1 0 0 1 381 52) matrix(-1 0 0 1 289 0) translate(26 16)"/>
                        </g>
                        <path fill="#50439B" d="M13 182.94v19.477c0 .844.598 1.848 1.359 2.276l7.282 4.123c.748.428 1.359.08 1.359-.75v-19.49c0-.843-.611-1.847-1.359-2.275l-7.282-4.123c-.761-.415-1.359-.08-1.359.763zm.53.777c0-.79.543-1.124 1.21-.75l6.52 3.682c.653.375 1.197 1.325 1.197 2.115v18.513c0 .79-.53 1.137-1.196.75l-6.522-3.682c-.666-.375-1.21-1.325-1.21-2.115v-18.513z" transform="translate(-375 -2849) translate(375 2849) matrix(-1 0 0 1 381 52) matrix(-1 0 0 1 289 0)"/>
                    </g>
                    <g>
                        <path fill="#97CBFF" d="M64.832 168.805c-11.232-1.69-20.382 6.888-23.068-9.292l.996-.244c1.7-2.32 5.717-1.5 6.713.355 1.6 2.983 4.736 3.984 9.266 3.428 1.356-.165-.821 2.288-.085 3.438l6.178 2.315z" transform="translate(-375 -2849) translate(375 2849) matrix(-1 0 0 1 381 52) translate(0 24.045)"/>
                        <g>
                            <path fill="#162C66" d="M81.579 87.603L0.339 40.705 57.96 7.433 139.195 54.336z" transform="translate(-375 -2849) translate(375 2849) matrix(-1 0 0 1 381 52) translate(0 24.045) translate(37.616 168.477)"/>
                            <path fill="#162C66" d="M0.339 33.77L0.339 40.705 139.195 47.401 139.195 54.336z" transform="translate(-375 -2849) translate(375 2849) matrix(-1 0 0 1 381 52) translate(0 24.045) translate(37.616 168.477)"/>
                            <path fill="#4056A8" d="M81.579 80.668L0.339 33.77 57.96 0.503 139.195 47.401z" transform="translate(-375 -2849) translate(375 2849) matrix(-1 0 0 1 381 52) translate(0 24.045) translate(37.616 168.477)"/>
                            <path fill="#4056A8" d="M81.579 80.668L0.339 33.77 57.96 0.503 139.195 47.401z" transform="translate(-375 -2849) translate(375 2849) matrix(-1 0 0 1 381 52) translate(0 24.045) translate(37.616 168.477)"/>
                            <path fill="#4056A8" d="M81.579 83.02L0.339 36.117 57.96 2.85 139.195 49.754z" transform="translate(-375 -2849) translate(375 2849) matrix(-1 0 0 1 381 52) translate(0 24.045) translate(37.616 168.477)"/>
                        </g>
                        <g>
                            <path fill="#A8C4E5" d="M64.265 73.293L15.48 45.128c-.567-.328-.493-.9.159-1.276l23.375-13.494c.651-.377 1.647-.419 2.214-.09l48.784 28.164c.567.328.493.9-.159 1.277L66.48 73.203c-.656.376-1.647.418-2.214.09z" opacity=".4" transform="translate(-375 -2849) translate(375 2849) matrix(-1 0 0 1 381 52) translate(0 24.045) translate(68.344 147.285)"/>
                            <path fill="#A1BBDA" d="M82.638 33.24c0-.006 0-.006 0 0v-.059-.053-.005-.005c0-.01 0-.027-.005-.037 0-.016-.005-.037-.005-.053 0-.01 0-.016-.005-.027v-.01-.016c-.006-.016-.006-.037-.011-.053-.005-.016-.005-.032-.01-.048-.006-.016-.011-.037-.011-.053-.006-.016-.01-.037-.016-.053 0-.005-.005-.01-.005-.016 0-.005 0-.005-.006-.01-.005-.01-.005-.021-.01-.027l-.016-.047c-.006-.011-.01-.027-.01-.038v-.005-.005l-.017-.048-.016-.047c0-.006-.005-.011-.01-.022 0-.005 0-.005-.006-.01 0-.006-.005-.01-.005-.016-.005-.016-.016-.032-.021-.048-.005-.016-.016-.032-.021-.048v-.005s0-.005-.006-.005c-.01-.016-.015-.032-.026-.048-.01-.016-.016-.032-.026-.042l-.016-.032c-.006-.005-.006-.01-.006-.016-.016-.026-.031-.048-.042-.069-.005-.005-.01-.016-.016-.021v-.005c-.021-.032-.042-.059-.058-.085-.006-.005-.006-.01-.01-.01l-.011-.011c-.006-.01-.016-.021-.022-.027-.01-.016-.026-.031-.037-.047l-.016-.016c0-.006-.005-.006-.005-.01l-.016-.017c-.01-.016-.026-.026-.037-.042l-.032-.032-.005-.005-.005-.006-.043-.042c-.016-.016-.031-.026-.042-.042-.016-.016-.032-.027-.042-.037-.016-.011-.032-.027-.048-.037l-.005-.006-.006-.005c-.01-.01-.02-.016-.037-.027l-.047-.031c-.006-.006-.011-.006-.016-.01 0 0-.006 0-.006-.006-.01-.006-.02-.01-.026-.021l-.048-.032c-.005 0-.26-.149-.265-.154l-1.446.779s.344.201.36.212l.048.032.048.031c.015.011.031.027.047.038.006.005.01.01.021.015.027.022.048.043.075.064.026.021.047.042.074.069l.01.01c.022.022.043.048.064.07l.01.01c.022.021.043.048.059.069.005.005.005.01.01.01l.059.075c.01.01.016.026.026.037l.032.047c.01.022.026.037.037.059.005.01.016.026.021.037.006.01.01.02.021.031.011.022.022.043.032.059.006.005.006.01.01.016.017.026.027.058.043.084 0 0 0 .006.005.006.016.032.027.058.038.09 0 .005 0 .005.005.01.01.032.021.059.032.09 0 .006.005.006.005.011.01.032.021.058.026.09 0 .005 0 .01.006.016.01.032.016.058.02.09 0 .005 0 .01.006.016l.016.09v.01c.005.032.01.059.01.09v.011c.006.032.006.059.006.09v.149c0 .016 0 .037-.005.053 0 .02-.006.037-.006.058 0 .016-.005.032-.005.048l-.016.084-4.99 30.84c-.022.149-.594 1.086-.467 1.012l1.367-1.155c.292-.244.482-.583.54-.959l4.896-30.262c.021-.148.058-.366.058-.366 0-.016.006-.031.006-.047 0-.01.005-.027.005-.037v-.006-.01c0-.016.005-.037.005-.053v-.043c.005-.005.005-.01.005-.01z" transform="translate(-375 -2849) translate(375 2849) matrix(-1 0 0 1 381 52) translate(0 24.045) translate(68.344 147.285)"/>
                            <path fill="#FFF" d="M80.27 32.328c.652.377 1.086 1.24.975 1.929l-5.065 31.29c-.111.689-.731.943-1.377.567l-47.92-27.666c-.653-.376-1.087-1.24-.976-1.929l5.06-31.29c.111-.689.731-.943 1.377-.567L80.27 32.328z" transform="translate(-375 -2849) translate(375 2849) matrix(-1 0 0 1 381 52) translate(0 24.045) translate(68.344 147.285)"/>
                            <path fill="#E5E5E5" d="M81.928 27.725L34.432.302h-.006L34.358.26c-.053-.032-.117-.07-.128-.075-.015-.01-.031-.015-.047-.026-.016-.01-.032-.016-.048-.021-.016-.006-.032-.016-.048-.021l-.053-.022c-.015-.005-.037-.01-.053-.016l-.053-.015h-.005-.005c-.016-.006-.032-.006-.048-.011-.01 0-.016 0-.026-.005-.006 0-.01 0-.021-.006h-.016c-.022 0-.037-.005-.059-.005H33.674 33.59c-.016 0-.032.005-.048.005-.01 0-.016 0-.027.006h-.005c-.032.005-.064.016-.095.026h-.006c-.005 0-.005.005-.01.005-.037.016-.08.032-.112.053l-1.393.811c.037-.021.074-.037.111-.053l.048-.016c.016-.005.037-.01.053-.016.021-.005.042-.01.069-.01.01 0 .016-.006.026-.006.032-.005.064-.005.096-.005h.016c.031 0 .068.005.1.01h.006c.037.006.074.011.11.022h.011c.037.01.075.021.112.037.005 0 .005.005.01.005.037.016.08.032.117.053.016.01.032.016.047.027.011.005.027.016.038.02l.264.155L80.7 28.63c.053.032.122.032.175 0l1.044-.609c.127-.063.127-.233.01-.296z" transform="translate(-375 -2849) translate(375 2849) matrix(-1 0 0 1 381 52) translate(0 24.045) translate(68.344 147.285)"/>
                            <path fill="#A1BBDA" d="M83.216 29.595c0-.006 0-.006 0 0v-.059-.053-.005-.005c0-.01 0-.027-.005-.037 0-.016-.006-.037-.006-.053 0-.01 0-.016-.005-.027v-.01-.016c-.005-.016-.005-.037-.01-.053-.006-.016-.006-.032-.011-.048-.005-.016-.01-.037-.01-.053l-.017-.053c0-.005-.005-.01-.005-.016 0-.005 0-.005-.005-.01-.006-.01-.006-.022-.01-.027l-.017-.047c-.005-.011-.01-.027-.01-.038v-.005-.005l-.016-.048-.016-.048c-.005-.005-.005-.01-.01-.02 0-.006 0-.006-.006-.011 0-.006-.005-.01-.005-.016-.006-.016-.016-.032-.022-.048-.005-.016-.015-.032-.02-.048v-.005s0-.005-.006-.005c-.01-.016-.016-.032-.027-.048-.01-.016-.015-.032-.026-.042l-.016-.032c-.005-.005-.005-.01-.005-.016-.016-.021-.032-.048-.043-.069-.005-.005-.01-.016-.015-.021v-.005c-.022-.032-.043-.059-.059-.085l-.01-.01-.01-.011c-.006-.01-.017-.021-.022-.027-.01-.016-.027-.032-.037-.047l-.016-.016c0-.006-.005-.006-.005-.01l-.016-.017c-.01-.016-.027-.026-.037-.042l-.032-.032-.005-.005-.006-.006-.042-.042c-.016-.016-.032-.026-.043-.042-.015-.01-.031-.027-.042-.037-.016-.011-.032-.027-.048-.038l-.005-.005-.005-.005c-.01-.01-.021-.016-.037-.027l-.048-.031c-.005-.006-.01-.006-.016-.011 0 0-.005 0-.005-.005-.01-.006-.021-.01-.027-.021l-.047-.032c-.006 0-1.155-.668-1.16-.668l-1.426.858s1.224.642 1.24.652l.048.032.047.032c.016.01.032.02.048.037.005.005.01.01.021.016.027.02.048.042.074.063.027.021.048.043.075.07l.01.01c.021.02.043.047.064.069l.01.01c.022.021.043.048.059.07.005.004.005.01.01.01l.058.074c.011.01.016.026.027.037l.032.048c.01.02.026.037.037.058.005.01.016.026.021.037.005.01.01.021.021.032.01.021.021.037.032.058.005.005.005.01.01.016.016.026.027.058.043.085 0 0 0 .005.005.005.016.032.027.058.037.09 0 .005 0 .005.006.01l.031.09c0 .006.006.006.006.011.01.032.02.059.026.09 0 .006.006.011.006.016.01.032.015.059.02.09 0 .006 0 .01.006.016l.016.09v.01c.005.033.01.06.01.091v.01c.006.032.006.059.006.09v.149c0 .016 0 .037-.005.053 0 .021-.006.037-.006.058 0 .016-.005.032-.005.048 0 0-.005.032-.016.08l-4.99 30.84c-.022.147-.594 1.085-.467 1.011l1.367-1.155c.291-.244.482-.583.54-.959l4.896-30.262c.02-.148.058-.366.058-.366 0-.016.005-.031.005-.047 0-.011.006-.027.006-.037v-.006-.01c0-.016 0-.037.005-.053v-.043-.01z" transform="translate(-375 -2849) translate(375 2849) matrix(-1 0 0 1 381 52) translate(0 24.045) translate(68.344 147.285)"/>
                            <path fill="#162C66" d="M80.8 28.683c.652.377 1.086 1.24.975 1.929l-5.065 31.29c-.111.689-.731.943-1.378.567l-47.92-27.666c-.652-.377-1.086-1.24-.975-1.929l5.06-31.29c.11-.689.73-.943 1.377-.567L80.8 28.683z" transform="translate(-375 -2849) translate(375 2849) matrix(-1 0 0 1 381 52) translate(0 24.045) translate(68.344 147.285)"/>
                            <path fill="#453C9E" d="M79.089 30.697c.614.35 1.033 1.102.932 1.68l-4.577 26.25c-.101.578-.684.764-1.298.414L28.694 33.293c-.615-.35-1.033-1.102-.932-1.68l4.577-26.251c.1-.578.684-.763 1.298-.414L79.09 30.697z" transform="translate(-375 -2849) translate(375 2849) matrix(-1 0 0 1 381 52) translate(0 24.045) translate(68.344 147.285)"/>
                            <path fill="#FFF" d="M57.309 16.922c0 .302-.212.424-.477.27-.265-.154-.477-.52-.477-.821 0-.302.212-.424.477-.27.265.153.477.519.477.82z" transform="translate(-375 -2849) translate(375 2849) matrix(-1 0 0 1 381 52) translate(0 24.045) translate(68.344 147.285)"/>
                            <path fill="#162C66" d="M75.38 68.233l-.01-1.457-1.876.726-.403-.927L26.21 39.507c-.567-.328-1.616-.286-2.267.09L3.709 51.253v-.323L.55 52.43l-.472-.176.043 1.425c.048.313.159.44.35.551L49.25 82.47c.567.328 1.558.323 2.21-.053l23.374-13.478c.355-.207.536-.461.54-.71l.006.005z" transform="translate(-375 -2849) translate(375 2849) matrix(-1 0 0 1 381 52) translate(0 24.045) translate(68.344 147.285)"/>
                            <path fill="#E3EBF4" d="M49.224 80.694L.44 52.53c-.567-.329-.493-.9.159-1.277l23.375-13.494c.651-.376 1.647-.419 2.214-.09l48.784 28.164c.567.329.493.9-.159 1.277L51.438 80.604c-.651.37-1.647.413-2.214.09z" transform="translate(-375 -2849) translate(375 2849) matrix(-1 0 0 1 381 52) translate(0 24.045) translate(68.344 147.285)"/>
                            <path fill="#C7D9F0" d="M31.046 67.083l-11.804-6.818c-.137-.08-.121-.217.037-.307l5.659-3.27c.159-.09.397-.1.535-.02l11.804 6.818c.138.08.122.217-.037.307l-5.659 3.27c-.158.09-.397.1-.535.02z" transform="translate(-375 -2849) translate(375 2849) matrix(-1 0 0 1 381 52) translate(0 24.045) translate(68.344 147.285)"/>
                            <g fill="#7FB0F0">
                                <path d="M14.713 3.142c-.07.042-.218.026-.324-.037l-2.961-1.712c-.106-.063-.138-.143-.064-.185l1.96-1.134c.07-.042.218-.026.324.037l2.961 1.712c.106.063.138.143.064.185l-1.96 1.134zM18.151 8.249c-.074.042-.217.026-.323-.037L14.866 6.5c-.106-.064-.138-.143-.063-.186l1.96-1.134c.069-.042.212-.026.318.038l2.961 1.71c.106.064.138.144.07.186L18.15 8.25zM16.413 10.368c-.069.043-.217.021-.323-.037L13.128 8.62c-.105-.058-.137-.143-.063-.186l1.965-1.133c.07-.043.218-.022.324.037l2.961 1.711c.106.064.138.143.064.185l-1.966 1.134zM11.714 10.776c-.069.043-.217.027-.323-.037L8.429 9.028c-.106-.058-.132-.143-.063-.186l1.96-1.133c.069-.043.217-.027.323.037l2.962 1.711c.106.064.132.143.063.185l-1.96 1.134zM3.56 9.584c-.069.042-.217.027-.323-.037L.275 7.836C.17 7.772.138 7.693.212 7.65l2.305-1.33c.068-.042.217-.026.323.038L5.8 8.068c.106.064.133.15.064.186L3.56 9.584zM8.668 12.53c-.07.042-.244.01-.382-.074l-3.878-2.241c-.138-.08-.196-.18-.127-.223l2.304-1.33c.07-.042.244-.005.382.074l3.878 2.241c.143.08.196.18.127.223l-2.304 1.33zM34.162 27.264c-.059.031-.196.01-.302-.048l-2.962-1.706c-.106-.064-.148-.143-.09-.175l.853-.493c.058-.031.196-.01.302.053l2.962 1.706c.105.064.143.138.084.175l-.847.488zM38.12 29.605c-.06.032-.197.01-.303-.047l-2.961-1.706c-.106-.064-.149-.143-.09-.175l.853-.493c.058-.032.196-.01.302.053l2.961 1.706c.106.064.143.138.085.175l-.848.487zM42.315 31.974c-.058.031-.19.01-.296-.053l-2.962-1.706c-.106-.064-.148-.138-.09-.17l.821-.471c.058-.032.19-.011.297.052l2.961 1.706c.106.064.149.138.09.17l-.82.472zM39.735 28.705c-.058.031-.19.01-.297-.053l-2.961-1.706c-.106-.064-.149-.138-.09-.17l.82-.471c.06-.032.192-.011.298.053l2.961 1.706c.106.063.149.137.09.17l-.82.47zM29.044 24.286c-.07.042-.218.021-.323-.037L9.446 13.129c-.106-.059-.137-.144-.063-.186l2.304-1.33c.07-.042.218-.02.324.037l19.274 11.12c.106.064.138.15.069.186l-2.31 1.33z" transform="translate(-375 -2849) translate(375 2849) matrix(-1 0 0 1 381 52) translate(0 24.045) translate(68.344 147.285) translate(12.185 39.735)"/>
                                <path d="M27.068 22.601c-.006 0-.08-.037-.165-.084l-15.337-8.853c-.085-.048-.149-.09-.149-.096l.143-.085c.006 0 .08.038.165.085l15.337 8.853c.085.048.154.09.149.096l-.143.084zM8.138 11.799c-.006 0-.016 0-.032-.01l-2.262-1.31c-.01-.005-.021-.015-.016-.015l.143-.085c.005 0 .016 0 .032.01l2.262 1.309c.01.005.021.016.016.016l-.143.085zM2.336 8.196h-.015l-.96-.556c-.005-.006-.005-.006 0-.01l.144-.086h.016l.958.557c.006.005.006.005 0 .01l-.143.085zM15.772 13.118c-.069.042-.217.026-.323-.037l-2.962-1.711c-.106-.059-.137-.144-.063-.186l1.96-1.134c.069-.042.217-.02.323.037L17.67 11.8c.106.063.138.143.063.185l-1.96 1.134zM19.852 15.47c-.07.043-.218.021-.324-.037l-2.961-1.711c-.106-.064-.138-.143-.064-.186l1.96-1.133c.07-.043.218-.022.324.037l2.961 1.711c.106.058.133.143.064.185l-1.96 1.134zM23.931 17.823c-.069.042-.217.026-.323-.038l-2.962-1.71c-.106-.064-.132-.144-.063-.186l1.96-1.134c.069-.042.217-.027.323.037l2.962 1.711c.106.064.132.143.063.186l-1.96 1.134zM28.005 20.175c-.069.042-.212.026-.323-.037l-2.961-1.712c-.106-.063-.138-.143-.064-.185l1.96-1.134c.07-.042.217-.026.323.037l2.962 1.712c.106.063.132.143.064.185l-1.96 1.134zM32.085 22.527c-.07.043-.217.021-.323-.037L28.8 20.784c-.106-.063-.132-.143-.064-.185l1.96-1.134c.07-.042.218-.027.324.037l2.961 1.711c.106.064.138.149.07.186l-1.966 1.128zM36.164 24.88c-.069.042-.217.02-.323-.038l-2.962-1.71c-.105-.064-.137-.144-.063-.186l1.96-1.134c.069-.042.217-.027.323.037l2.962 1.711c.106.064.138.143.064.186l-1.96 1.133zM45.351 30.183c-.069.042-.217.026-.323-.037l-8.07-4.657c-.105-.064-.137-.143-.063-.186l1.96-1.133c.07-.043.218-.027.324.037l8.069 4.657c.106.063.137.143.063.185l-1.96 1.134zM20.472 12.705c-.07.042-.212.026-.318-.037l-2.962-1.712c-.106-.063-.138-.143-.064-.185l1.966-1.134c.069-.042.212-.021.318.037l2.962 1.711c.105.064.132.143.063.186l-1.965 1.134zM24.551 15.062c-.069.043-.217.021-.323-.037l-2.962-1.711c-.106-.058-.138-.143-.063-.186l1.965-1.133c.07-.043.212-.021.318.037l2.962 1.711c.106.058.132.143.063.185l-1.96 1.134zM28.625 17.415c-.069.042-.217.02-.323-.038l-2.962-1.71c-.106-.06-.137-.144-.068-.186l1.965-1.134c.069-.042.217-.021.323.037l2.962 1.711c.106.064.138.143.063.186l-1.96 1.134zM32.705 19.767c-.07.042-.218.021-.324-.037l-2.961-1.711c-.106-.064-.138-.144-.064-.186l1.966-1.134c.069-.042.212-.02.323.037l2.962 1.712c.106.063.137.143.063.185l-1.965 1.134zM36.784 22.12c-.069.042-.217.02-.323-.038l-2.962-1.711c-.106-.064-.137-.143-.063-.186l1.965-1.133c.07-.043.212-.027.318.037l2.962 1.711c.106.064.138.143.063.185l-1.96 1.134zM40.864 24.472c-.07.042-.212.026-.318-.038l-2.962-1.706c-.106-.063-.138-.143-.069-.185l1.966-1.134c.069-.042.212-.02.323.037l2.962 1.706c.106.064.132.143.063.186l-1.965 1.134zM44.938 26.824c-.07.042-.217.021-.318-.037l-2.962-1.712c-.106-.063-.137-.143-.063-.185l1.965-1.134c.07-.042.212-.026.318.037l2.962 1.712c.106.063.132.143.063.185l-1.965 1.134zM22.21 10.585c-.075.043-.218.027-.324-.037l-2.961-1.71c-.106-.06-.133-.144-.064-.186l1.96-1.134c.07-.043.212-.021.318.037l2.962 1.711c.106.064.137.143.063.186l-1.955 1.133zM26.283 12.943c-.074.042-.217.027-.323-.037L23 11.195c-.106-.064-.138-.143-.064-.186l1.96-1.134c.07-.042.218-.02.324.038l2.961 1.71c.106.06.133.144.064.186l-1.96 1.134zM30.363 15.295c-.074.043-.217.027-.323-.037l-2.962-1.711c-.106-.064-.132-.143-.063-.185l1.96-1.134c.069-.043.212-.021.318.037l2.961 1.711c.106.064.138.143.07.186l-1.961 1.133zM34.442 17.648c-.074.042-.217.026-.323-.037l-2.961-1.712c-.106-.063-.138-.143-.064-.185l1.96-1.134c.07-.042.212-.021.323.037l2.962 1.711c.106.064.133.144.064.186l-1.96 1.134zM38.522 20c-.074.042-.217.026-.323-.037l-2.962-1.711c-.106-.064-.138-.143-.063-.186l1.96-1.134c.069-.042.212-.026.323.038l2.962 1.71c.106.06.132.144.063.186L38.522 20zM42.601 22.352c-.074.043-.217.027-.323-.037l-2.961-1.711c-.106-.058-.133-.143-.064-.185l1.96-1.134c.07-.043.217-.021.318.037l2.962 1.711c.106.064.137.143.069.186l-1.96 1.133zM46.675 24.705c-.074.042-.217.026-.323-.037l-2.961-1.712c-.106-.063-.138-.143-.064-.185l1.96-1.134c.07-.042.212-.021.324.037l2.961 1.711c.106.064.133.143.064.186l-1.96 1.134zM14.072 5.891c-.075.043-.218.027-.324-.037L8.726 2.956c-.106-.063-.138-.143-.064-.185l1.96-1.134c.07-.042.212-.021.324.037l5.022 2.898c.106.064.138.143.07.186L14.071 5.89zM53.457 25.5c-.069.042-.217.026-.323-.038l-5.023-2.898c-.106-.058-.137-.143-.063-.185l1.96-1.134c.069-.042.217-.021.323.037l5.023 2.898c.106.064.137.143.063.186l-1.96 1.133zM12.334 8.01c-.07.043-.212.027-.323-.036L6.024 4.519c-.106-.063-.138-.143-.064-.185L7.926 3.2c.069-.042.212-.021.323.037l5.987 3.454c.106.064.138.143.063.186L12.334 8.01zM7.634 8.424c-.068.042-.217.021-.323-.037l-3.99-2.305c-.105-.063-.137-.143-.063-.185l1.96-1.134c.07-.042.218-.027.324.037l3.99 2.305c.105.063.137.143.063.185l-1.96 1.134zM18.792 5.494c-.069.042-.217.027-.323-.037l-2.962-1.706c-.106-.064-.137-.143-.063-.185l1.96-1.134c.069-.043.217-.027.323.037l2.962 1.706c.106.063.137.143.063.185l-1.96 1.134zM22.85 7.836c-.069.042-.217.021-.323-.037l-2.961-1.712c-.106-.063-.138-.143-.064-.185l1.96-1.134c.07-.042.217-.021.323.037l2.962 1.712c.106.063.138.143.064.185l-1.96 1.134zM26.925 10.188c-.07.042-.212.027-.324-.037L23.64 8.44c-.106-.064-.138-.143-.064-.186l1.96-1.133c.07-.043.218-.027.324.037l2.961 1.71c.106.064.133.144.064.186l-1.96 1.134zM31.004 12.546c-.069.042-.217.026-.323-.037l-2.962-1.706c-.106-.064-.138-.143-.063-.186l1.96-1.134c.069-.042.217-.026.323.038l2.962 1.705c.106.064.137.144.063.186l-1.96 1.134zM35.083 14.898c-.068.042-.211.027-.323-.037L31.8 13.15c-.106-.064-.138-.143-.064-.186l1.96-1.134c.07-.042.218-.026.324.038l2.961 1.71c.106.064.133.144.064.186l-1.96 1.134zM39.163 17.25c-.069.043-.217.022-.323-.037l-2.962-1.711c-.106-.064-.132-.143-.063-.185l1.96-1.134c.069-.043.217-.027.323.037l2.962 1.711c.106.058.137.143.063.186l-1.96 1.133zM43.242 19.603c-.068.042-.217.026-.323-.037l-2.961-1.712c-.106-.063-.138-.143-.064-.185l1.96-1.134c.07-.042.218-.026.323.037l2.962 1.711c.106.064.138.143.064.186l-1.96 1.134zM47.317 21.955c-.07.042-.212.026-.318-.037l-2.962-1.711c-.106-.059-.132-.143-.063-.186l1.96-1.134c.069-.042.217-.026.318.038l2.961 1.71c.106.064.133.144.064.186l-1.96 1.134zM49.69 24.032c-.048-.027-.111-.048-.175-.058-.063-.006-.111 0-.148.02l-1.96 1.134c-.032.022-.048.048-.037.085.015.037.047.074.1.1l.774.446-2.575 1.489c-.032.02-.048.047-.032.084.01.038.048.07.1.101l1.998 1.15c.053.026.111.047.175.058.064.005.116 0 .148-.021l4.668-2.697c.032-.021.048-.048.032-.085-.011-.037-.048-.074-.101-.1l-2.967-1.706z" transform="translate(-375 -2849) translate(375 2849) matrix(-1 0 0 1 381 52) translate(0 24.045) translate(68.344 147.285) translate(12.185 39.735)"/>
                                <path d="M7.105 7.465c-.006 0-.016 0-.032-.01L4.81 6.144c-.011-.005-.022-.015-.016-.015l.143-.085c.005 0 .016 0 .032.01l2.262 1.31c.01.005.021.015.016.015l-.143.085z" transform="translate(-375 -2849) translate(375 2849) matrix(-1 0 0 1 381 52) translate(0 24.045) translate(68.344 147.285) translate(12.185 39.735)"/>
                            </g>
                        </g>
                        <g>
                            <path fill="#BCC8DB" d="M19.725 12.895L6.75 4.593c-.355-.227-.827-.582-1.07-.344l-.048.254-3.757 2.098 2.162 3.645-.46 3.529c-.298 2.257.83 4.98 2.5 6.05l5.865 3.751 2.379 4.641 3.825-1.955c.063-.037.127-.08.19-.127l.011-.01c.556-.424.954-1.182 1.091-2.204l1.166-8.89c.111-.795-.291-1.76-.88-2.136z" transform="translate(-375 -2849) translate(375 2849) matrix(-1 0 0 1 381 52) translate(0 24.045) translate(110.728 164.768)"/>
                            <path fill="#FFF" d="M12.328 27.995L2.65 22.268C.996 21.288-.111 18.644.18 16.38l1.166-8.89c.106-.8.667-1.17 1.255-.826l13.558 8.021c.583.344.98 1.282.874 2.082l-1.165 8.89c-.297 2.268-1.892 3.312-3.54 2.337z" transform="translate(-375 -2849) translate(375 2849) matrix(-1 0 0 1 381 52) translate(0 24.045) translate(110.728 164.768)"/>
                            <path fill="#162C66" d="M6.336 15.168c.143-1.091 1.039-1.51 2.003-.943.964.567 1.627 1.913 1.484 3.004-.144 1.092-1.039 1.51-2.003.943-.964-.572-1.627-1.918-1.484-3.004z" transform="translate(-375 -2849) translate(375 2849) matrix(-1 0 0 1 381 52) translate(0 24.045) translate(110.728 164.768)"/>
                            <path fill="#162C66" d="M7.984 14.972l.127.048c.472.175.763 1.017.647 1.865l-.366 2.638c-.117.848-.604 1.404-1.075 1.224l-.128-.048c-.471-.174-.763-1.017-.646-1.865l.366-2.638c.116-.853.604-1.404 1.075-1.224zM17.325 12.525c.29-.234.471-.567.482-.906.127-3.46-.377-9.187-4.848-10.994C10.803-.249 9.187.26 8.217.837 6.294 1.981 5.287 4.291 4.78 6.034c-.228.79.683 1.298 1.383.769l.8-.61c.19-.153.339-.35.413-.567.424-1.165 1.054-2.352 1.95-2.887.238-.143.974-.583 2.447.016 3.37 1.362 3.714 6.204 3.587 9.15-.037.91 1.054 1.33 1.838.71l.128-.09z" transform="translate(-375 -2849) translate(375 2849) matrix(-1 0 0 1 381 52) translate(0 24.045) translate(110.728 164.768)"/>
                            <path fill="#FFF" d="M1.812 19.147c-.323 0-.556-.254-.52-.562l1.166-8.89c.043-.307.34-.561.663-.561s.556.254.519.561l-1.166 8.89c-.037.308-.334.562-.662.562z" transform="translate(-375 -2849) translate(375 2849) matrix(-1 0 0 1 381 52) translate(0 24.045) translate(110.728 164.768)"/>
                        </g>
                        <path fill="#FFC2B0" d="M51.783 204.302c3.322.826 5.308 1.16 8.604.344 10.956-2.723 21.208-5.854 32.588-6.887 5.738-.52 5.997-9.579.196-9.05-10.575.96-21.012 2.761-31.168 5.903-1.913.593-3.804 1.24-5.685 1.923 1.722-.625 2.967.286 1.446-.09-.948-.238-1.907-.456-2.855-.689-14.861-3.66-18.554 4.716-3.126 8.546z" transform="translate(-375 -2849) translate(375 2849) matrix(-1 0 0 1 381 52) translate(0 24.045)"/>
                        <path fill="#FFF" d="M37.32 224.217c0 3.375-2.385 7.492-5.33 9.192-2.941 1.7-5.33.34-5.33-3.035s2.384-7.492 5.33-9.193c2.945-1.7 5.33-.339 5.33 3.036z" transform="translate(-375 -2849) translate(375 2849) matrix(-1 0 0 1 381 52) translate(0 24.045)"/>
                        <path fill="#FFF" d="M67.783 134.241l-.143 1.706s-.392 5.15-5.113 1.897c-4.72-3.253-3.804-9.621-3.804-9.621s3.889.01 9.06 6.018z" opacity=".46" transform="translate(-375 -2849) translate(375 2849) matrix(-1 0 0 1 381 52) translate(0 24.045)"/>
                        <path fill="#513554" d="M62.48 137.987c6.166 4.201 6.648-1.802 6.648-1.802l.048.032.048-2.055c-6.58-7.18-11.28-7.434-11.28-7.434s-1.631 7.057 4.535 11.259zm-3.524-9.494s3.762.249 8.795 5.806l-.132 1.478s-.36 4.461-4.944 1.33c-4.588-3.126-3.719-8.614-3.719-8.614z" transform="translate(-375 -2849) translate(375 2849) matrix(-1 0 0 1 381 52) translate(0 24.045)"/>
                        <path fill="#513554" d="M71.449 137.626L67.751 135.375 67.804 133.139 71.502 135.391zM58.06 128.466l-.656-.397c-.355-.217-.636-.784-.625-1.266.01-.482.312-.7.667-.482l.657.397c.355.217.636.784.625 1.266-.01.482-.312.7-.667.482z" transform="translate(-375 -2849) translate(375 2849) matrix(-1 0 0 1 381 52) translate(0 24.045)"/>
                        <path fill="#FCFEFF" d="M59.38 131.232c-.138-.212-.159-.466-.048-.567l1.32-1.144c.11-.101.318-.006.455.211.138.212.16.467.048.567l-1.32 1.145c-.11.095-.312 0-.455-.212z" transform="translate(-375 -2849) translate(375 2849) matrix(-1 0 0 1 381 52) translate(0 24.045)"/>
                        <path fill="#1F3B82" d="M52.074 254.575c6.019 17.663 8.737 38.463 8.17 56.948-.424 13.775-1.309 26.453-.965 40.233.228 9.039 14.3 9.076 14.072 0-.355-14.161 1.902-28.434 2.289-42.601.524-19.269-.276-39.343-6.549-57.738-2.903-8.524-16.503-4.863-13.568 3.74l-3.449-.582zM27.221 239.3c3.158 11.47 4.583 23.301 5.733 35.11.678 6.978 1.504 13.638.768 20.6-1.478 14.007-4.085 28.28-3.99 42.394.064 9.049 14.136 9.07 14.072 0-.1-14.32 4.773-28.927 6.246-43.147.742-7.163 1.5-32.689.79-39.852-1.245-12.588-1.039-11.772-4.403-23.994-2.395-8.71-21.626.132-19.216 8.89z" transform="translate(-375 -2849) translate(375 2849) matrix(-1 0 0 1 381 52) translate(0 24.045)"/>
                        <path fill="#1F3B82" d="M38.755 263.735c1.298 1.457-4.28-5.626-2.612-4.62 3.48 2.104 23.015 15.375 27.078 15.444 4.911.08 2.05-4.662 5.7-7.947 3.471-3.11 4.287-8.17 4.626-12.816.095-1.282.159-2.628-.355-3.81-.556-1.276-1.7-2.182-2.808-3.02-8.678-6.569-25.748-22.823-37.87-17.626-14.013 6.008.021 27.423 6.241 34.395z" transform="translate(-375 -2849) translate(375 2849) matrix(-1 0 0 1 381 52) translate(0 24.045)"/>
                        <path fill="#97CBFF" d="M28.572 163.475c-2.57 3.312-2.262 5.362-2.14 9.881.122 4.424 3.115 8.25 7.375 9.441L77.303 195s2.501-16.737-6.082-21.77c-4.62-2.712-11.793-7.057-17.425-10.485-8.27-5.033-19.29-6.919-25.224.731z" transform="translate(-375 -2849) translate(375 2849) matrix(-1 0 0 1 381 52) translate(0 24.045)"/>
                        <path fill="#FFC2B0" d="M48.403 162.914l3.682-16.397 10.002 6.728-3.014 14.93c-.292 2.421-11.39.307-10.67-5.261z" transform="translate(-375 -2849) translate(375 2849) matrix(-1 0 0 1 381 52) translate(0 24.045)"/>
                        <path fill="#FFC2B0" d="M57.902 122.188s-9.123-8.127-11.237 8.715c-1.468 11.714 4.434 22.723 13.505 28.45 5.647 3.566 13.404.795 14.431-5.006 2.448-8.344 3.418-16.302 1.447-23.486 1.24-6.993-3.905-5.065-12.218-6.522l-5.928-2.15z" transform="translate(-375 -2849) translate(375 2849) matrix(-1 0 0 1 381 52) translate(0 24.045)"/>
                        <path fill="#1F3B82" d="M55.327 156.403c-3.883-.143-7.396-2.363-9.335-5.733-2.368-4.111-5.515-11.184-3.973-17.812 4-17.24 16.058-12.127 25.123-11.973 4.492.074 7.555-1.15 10.68 3.359 2.85 4.106-.174 11.04-5.53 10.887-2.125-.063-1.442 3.878-2.099 5.77-1.165 3.364-5.541 4.286-6.31 7.666-1.08 4.779-4.81 7.867-7.888 7.852-.228 0-.45-.006-.668-.016z" transform="translate(-375 -2849) translate(375 2849) matrix(-1 0 0 1 381 52) translate(0 24.045)"/>
                        <path fill="#97CBFF" d="M26.273 238.925c-2.771-1.07-2.125-44.864.36-71.153L75.62 187.27c-.25 22.373-3.073 40.032-.393 67.3l-48.953-15.644z" transform="translate(-375 -2849) translate(375 2849) matrix(-1 0 0 1 381 52) translate(0 24.045)"/>
                        <path fill="#97CBFF" d="M58.893 259.444c-12.096-4.414-23.619-9.245-30.39-17.547-3.327-1.918-2.903-5.304.938-7.523 3.841-2.215 9.7-2.459 13.028-.54l30.39 17.546c3.326 1.918 2.903 5.303-.938 7.523-3.842 2.215-9.701 2.459-13.028.54z" transform="translate(-375 -2849) translate(375 2849) matrix(-1 0 0 1 381 52) translate(0 24.045)"/>
                        <path fill="#5EA0E0" d="M75.619 187.274l-10.692 1.32c-.328 21.811 3.55 63.38-4.583 65.276 0 0-2.961 1.537-9.499.546-5.807-2.12-11.475-4.34-16.556-6.988 6.68 5.118 15.475 8.689 24.604 12.016 3.327 1.918 9.186 1.68 13.028-.54 2.156-1.246 3.231-2.856 3.173-4.372l.132.043c-2.68-27.269.149-44.927.393-67.3z" transform="translate(-375 -2849) translate(375 2849) matrix(-1 0 0 1 381 52) translate(0 24.045)"/>
                        <path fill="#FFF" d="M65.558 169.849c-11.232-1.69-18.819 5.372-21.505-10.808 1.637-1.017 3.751-.524 4.853 1.06 1.928 2.786 6.03 4.545 10.559 3.99 1.356-.165 2.686.455 3.428 1.604l2.665 4.154z" transform="translate(-375 -2849) translate(375 2849) matrix(-1 0 0 1 381 52) translate(0 24.045)"/>
                        <path fill="#FFC2B0" d="M67.412 184.487c.763 9.362 2.252 17.929 6.167 26.512 2.813 6.172 5.7 15.004 11.793 18.892 13.754 8.784 22.41-6.336 28.906-14.898 3.523-4.64-2.649-8.82-6.13-4.238-3.682 4.848-12.959 18.39-19.957 9.224-7.476-9.786-10.75-23.55-11.725-35.492-.471-5.77-9.53-5.817-9.054 0zM67.777 147.01c-.084 2.532-1.626 4.534-3.438 4.47-.196-.005-.392-.036-.577-.09-1.526-.434-2.628-2.346-2.554-4.603.085-2.533 1.626-4.535 3.438-4.472 1.818.059 3.216 2.162 3.131 4.694z" transform="translate(-375 -2849) translate(375 2849) matrix(-1 0 0 1 381 52) translate(0 24.045)"/>
                        <path fill="#162642" d="M78.03 365.732c-.303.175-4.541 1.314-4.827 1.479-.435.249-1.722.91-2.485 1.255-1.61.726-5.362 3.968-9.648.27-6.267-5.414 12.933-13.24 12.933-13.24l8.27-2.368c1.006-.286 2.103-.063 2.956.604 1.574 1.235 1.828 3.545.54 4.991-2.203 2.49-2.633 4.117-7.74 7.01z" transform="translate(-375 -2849) translate(375 2849) matrix(-1 0 0 1 381 52) translate(0 24.045)"/>
                        <path fill="#4056A8" d="M77.664 363.454c-.302.175-4.54 1.314-4.827 1.478-.434.25-1.722.912-2.485 1.256-1.61.726-5.361 3.968-9.647.27-6.268-5.409 12.932-13.24 12.932-13.24l8.27-2.368c1.007-.286 2.104-.063 2.957.604 1.573 1.235 1.827 3.545.54 4.991-2.204 2.49-2.633 4.117-7.74 7.01z" transform="translate(-375 -2849) translate(375 2849) matrix(-1 0 0 1 381 52) translate(0 24.045)"/>
                        <path fill="#7CAADE" d="M71.698 354.813c-2.845 2.485-8.747 2.14-10.962-1.006-.037 1.732-.042 3.47 0 5.197.175 7.163 11.158 7.19 10.983 0-.032-1.393-.037-2.792-.021-4.19z" transform="translate(-375 -2849) translate(375 2849) matrix(-1 0 0 1 381 52) translate(0 24.045)"/>
                        <path fill="#4056A8" d="M57.854 352.72l.122 4.864c.005.207.069.408.196.578.731.99 3.613 4.317 8.874 3.39 4.61-.81 7.09-2.262 8.037-2.94.297-.212.45-.556.419-.922l-.456-4.948c-.069-.742-.88-1.171-1.515-.795-2.352 1.388-7.565 3.444-14.156-.132-.694-.382-1.537.116-1.52.906z" transform="translate(-375 -2849) translate(375 2849) matrix(-1 0 0 1 381 52) translate(0 24.045)"/>
                        <path fill="#162642" d="M49.033 346.246c-.26.228-4.164 2.188-4.408 2.4-.376.329-1.5 1.23-2.172 1.717-1.425 1.028-4.434 4.932-9.346 2.183-7.184-4.021 9.966-15.476 9.966-15.476l7.587-3.952c.921-.482 2.04-.482 3.004 0 1.78.89 2.49 3.089 1.525 4.757-1.668 2.861-1.759 4.53-6.156 8.371z" transform="translate(-375 -2849) translate(375 2849) matrix(-1 0 0 1 381 52) translate(0 24.045)"/>
                        <path fill="#4056A8" d="M48.223 344.095c-.26.228-4.165 2.188-4.408 2.4-.377.329-1.494 1.23-2.173 1.717-1.425 1.028-4.434 4.932-9.345 2.183-7.184-4.021 9.965-15.476 9.965-15.476l7.587-3.952c.922-.482 2.04-.482 3.004 0 1.78.89 2.49 3.089 1.526 4.758-1.664 2.866-1.76 4.535-6.156 8.37z" transform="translate(-375 -2849) translate(375 2849) matrix(-1 0 0 1 381 52) translate(0 24.045)"/>
                        <path fill="#7CAADE" d="M41.812 337.441c-2.83 2.469-8.7 2.13-10.903-1.001-.037 1.727-.043 3.449 0 5.17.17 7.126 11.094 7.153 10.924 0-.037-1.387-.037-2.78-.021-4.169z" transform="translate(-375 -2849) translate(375 2849) matrix(-1 0 0 1 381 52) translate(0 24.045)"/>
                        <path fill="#4056A8" d="M28.042 335.354l.122 4.837c.006.206.07.402.196.572.726.985 3.598 4.291 8.827 3.375 4.588-.81 7.046-2.252 7.994-2.925.297-.206.45-.556.414-.916l-.45-4.922c-.07-.737-.875-1.166-1.51-.79-2.337 1.378-7.524 3.428-14.083-.132-.688-.376-1.53.117-1.51.9z" transform="translate(-375 -2849) translate(375 2849) matrix(-1 0 0 1 381 52) translate(0 24.045)"/>
                        <path fill="#FFC2B0" d="M78.39 150.257c-.059.355-.403.588-.721.758-.906.476-1.907.773-2.93.868-.487.048-1.033.027-1.388-.312-.376-.36-.392-.948-.323-1.462.196-1.362 1.091-3.635 2.739-3.709.678-.032.922-4.63.932-3.974.059 2.639 1.065 6.151 1.69 7.831z" transform="translate(-375 -2849) translate(375 2849) matrix(-1 0 0 1 381 52) translate(0 24.045)"/>
                        <path fill="#97CBFF" d="M64.493 183.915c.222 20.34 6.961 34.268 15.04 41.706 4.34 3.052 9.437-3.772 8.144-8.355-7.905-8.704-9.017-17.5-10.278-32-.843-2.93-2.67-7.862-5.876-7.385l-2.304-.074c-3.338.503-5.129 2.972-4.726 6.108z" transform="translate(-375 -2849) translate(375 2849) matrix(-1 0 0 1 381 52) translate(0 24.045)"/>
                        <path fill="#FFF" d="M87.846 217.102c-.323 3.179-1.68 9.992-7.412 10.644-.853.095-1.7-.212-2.325-.795l-1.267-1.192c-1.282-1.203-1.24-3.248.085-4.403 1.706-1.483 3.889-3.64 5.388-6.06.954-1.548 3.03-1.94 4.44-.785l.021.016c.758.625 1.166 1.59 1.07 2.575z" transform="translate(-375 -2849) translate(375 2849) matrix(-1 0 0 1 381 52) translate(0 24.045)"/>
                        <path fill="#D2EBFF" d="M88.917 123.793L26.379 87.687c-2.088-1.202-3.794-4.466-3.794-7.247V21.266c0-2.781 1.706-4.074 3.794-2.866l62.538 36.106c2.087 1.203 3.793 4.466 3.793 7.248v59.173c0 2.782-1.706 4.074-3.793 2.866z" opacity=".69" transform="translate(-375 -2849) translate(375 2849) matrix(-1 0 0 1 381 52) translate(0 24.045)"/>
                        <g>
                            <path fill="#1F3B82" d="M.01 12.249C.234 22.909 7.937 35.693 17.22 40.8c9.282 5.107 16.63.604 16.413-10.056-.223-10.66-7.926-23.443-17.208-28.55C7.136-2.91-.212 1.588.01 12.248zm28.085 15.454c.149 7.147-4.778 10.167-11.004 6.745C10.866 31.02 5.701 22.453 5.552 15.3c-.148-7.147 4.78-10.167 11.004-6.745 6.225 3.423 11.391 11.995 11.54 19.147z" transform="translate(-375 -2849) translate(375 2849) matrix(-1 0 0 1 381 52) translate(0 24.045) translate(38.146 41.854)"/>
                            <path fill="#EA74FF" d="M16.424 2.199C10.744-.927 5.79-.451 2.85 2.834l4.668 6.083c1.981-2.14 5.271-2.432 9.038-.355 5.155 2.834 9.58 9.197 11.036 15.359l5.346 1.43c-2.114-9.272-8.763-18.887-16.514-23.152z" transform="translate(-375 -2849) translate(375 2849) matrix(-1 0 0 1 381 52) translate(0 24.045) translate(38.146 41.854)"/>
                            <path fill="#FFF" d="M4.498 27.359l4.132-1.796c-1.849-3.285-3.014-6.93-3.083-10.268-.064-3.02.784-5.298 2.246-6.67L3.46 2.21C1.213 4.244-.085 7.677.01 12.25c.101 4.906 1.791 10.262 4.488 15.11z" transform="translate(-375 -2849) translate(375 2849) matrix(-1 0 0 1 381 52) translate(0 24.045) translate(38.146 41.854)"/>
                        </g>
                        <path fill="#FFF" d="M40.09 87.82l-9.552-5.515c-.853-.493-1.553-1.828-1.553-2.967 0-1.14.7-1.67 1.553-1.176l9.552 5.515c.853.493 1.552 1.828 1.552 2.967s-.699 1.669-1.552 1.176zM57.219 97.849l-9.553-5.515c-.853-.493-1.552-1.828-1.552-2.967 0-1.14.7-1.669 1.552-1.176l9.553 5.515c.853.493 1.552 1.828 1.552 2.967s-.7 1.669-1.552 1.176zM74.347 107.878l-9.552-5.515c-.853-.493-1.553-1.828-1.553-2.967s.7-1.669 1.553-1.176l9.552 5.515c.853.493 1.552 1.828 1.552 2.967.006 1.14-.694 1.669-1.552 1.176z" transform="translate(-375 -2849) translate(375 2849) matrix(-1 0 0 1 381 52) translate(0 24.045)"/>
                        <g>
                            <path fill="#46A4F0" d="M28.069 72.233L2.929 58.665c-1.398-.758-2.542-2.83-2.548-4.63L.175 2.32C.17.519 1.298-.33 2.697.429l25.139 13.568c1.398.758 2.543 2.83 2.548 4.63l.207 51.715c.005 1.796-1.123 2.649-2.522 1.891z" transform="translate(-375 -2849) translate(375 2849) matrix(-1 0 0 1 381 52) translate(0 24.045) translate(0 56.689)"/>
                            <path fill="#EA74FF" d="M11.089 18.21l-5.404-2.92c-1.097-.593-1.992-2.215-1.998-3.63-.005-1.408.88-2.076 1.977-1.483l5.404 2.92c1.096.593 1.992 2.214 1.997 3.629.005 1.41-.88 2.077-1.976 1.483z" transform="translate(-375 -2849) translate(375 2849) matrix(-1 0 0 1 381 52) translate(0 24.045) translate(0 56.689)"/>
                            <path fill="#FFF" d="M18.57 31.1l-8.149-4.398c-.869-.466-1.573-1.754-1.579-2.872-.005-1.117.694-1.642 1.563-1.176l8.149 4.398c.869.466 1.573 1.753 1.578 2.871.006 1.118-.694 1.648-1.562 1.176z" transform="translate(-375 -2849) translate(375 2849) matrix(-1 0 0 1 381 52) translate(0 24.045) translate(0 56.689)"/>
                            <path fill="#A7D1E8" d="M25.441 44.053l-14.977-8.085c-.87-.466-1.574-1.753-1.58-2.871-.005-1.118.695-1.643 1.564-1.176l14.977 8.084c.869.467 1.574 1.754 1.579 2.872 0 1.118-.7 1.642-1.563 1.176z" transform="translate(-375 -2849) translate(375 2849) matrix(-1 0 0 1 381 52) translate(0 24.045) translate(0 56.689)"/>
                            <path fill="#FFF" d="M18.644 49.632l-8.149-4.398c-.869-.466-1.573-1.753-1.578-2.871-.006-1.118.694-1.642 1.562-1.176l8.149 4.397c.869.466 1.573 1.754 1.579 2.872.005 1.118-.694 1.647-1.563 1.176z" transform="translate(-375 -2849) translate(375 2849) matrix(-1 0 0 1 381 52) translate(0 24.045) translate(0 56.689)"/>
                            <path fill="#EA74FF" d="M11.65 54.596l-5.584-3.015c-.869-.466-1.573-1.753-1.579-2.871-.005-1.118.694-1.642 1.563-1.176l5.584 3.014c.87.467 1.574 1.754 1.58 2.872.005 1.123-.695 1.648-1.564 1.176z" transform="translate(-375 -2849) translate(375 2849) matrix(-1 0 0 1 381 52) translate(0 24.045) translate(0 56.689)"/>
                        </g>
                        <g fill="#D2EBFF" opacity=".69">
                            <path d="M14.575 17.224c2.871 1.732 5.287 5.25 6.24 8.726l3.084-2.38c-1.944-4.661-5.335-9.011-9.229-11.358-3.894-2.347-7.37-2.135-9.446.1l2.924 5.998c1.055-2.262 3.555-2.819 6.427-1.086z" transform="translate(-375 -2849) translate(375 2849) matrix(-1 0 0 1 381 52) translate(0 24.045) translate(45.563)"/>
                            <path d="M.132 1.87l2.76 5.67c2.803-2.353 7.09-2.38 11.852.492 4.763 2.871 8.954 8.01 11.598 13.642l2.914-2.246c-.355-.7-.731-1.388-1.124-2.072-3.396-5.95-8.079-11.19-13.298-14.336C9.034-.482 3.756-.662.132 1.87zM12.223 26.665c.047.08.095.159.148.233.085.127.175.249.27.37.085.112.17.218.26.319.08.095.164.19.249.28.116.122.238.239.36.35.069.064.138.133.212.19.201.165.408.319.625.451.217.133.424.228.625.308.074.026.143.042.212.063.127.037.25.074.366.09.09.016.17.021.254.027.09.005.18.005.265-.006.095-.005.19-.015.28-.042.054-.01.101-.032.154-.053.525-.18.917-.604 1.123-1.25.038-.122.07-.25.096-.382.037-.175.058-.36.063-.567.006-.265-.015-.54-.053-.816-.28-1.939-1.61-4.074-3.237-5.054-1.626-.98-3.009-.482-3.353 1.081-.048.222-.08.466-.085.731-.005.207.016.419.042.63.016.165.048.324.08.488.069.339.175.683.296 1.022.191.53.44 1.05.748 1.537z" transform="translate(-375 -2849) translate(375 2849) matrix(-1 0 0 1 381 52) translate(0 24.045) translate(45.563)"/>
                        </g>
                    </g>
                </g>
            </g>
        </g>
    </g>
</svg>
