<svg xmlns="http://www.w3.org/2000/svg" width="20" height="25" viewBox="0 0 20 25">
    <g fill="none" fill-rule="evenodd">
        <g fill="#FFF" fill-rule="nonzero">
            <g>
                <g>
                    <g>
                        <path d="M36.667 43c.586 0 1.137-.154 1.653-.463.516-.309.924-.726 1.227-1.253.302-.526.453-1.089.453-1.688V28.212c0-1.851-.453-3.567-1.36-5.147-.889-1.543-2.089-2.768-3.6-3.676C33.493 18.463 31.813 18 30 18c-1.813 0-3.493.463-5.04 1.389-1.511.908-2.711 2.133-3.6 3.676-.907 1.58-1.36 3.296-1.36 5.147v7.98c0 .599.151 1.162.453 1.688.303.527.711.944 1.227 1.253.516.309 1.067.463 1.653.463h3.334V30.5H22.24v-2.288c0-1.452.347-2.786 1.04-4.003.693-1.198 1.627-2.151 2.8-2.86 1.191-.707 2.498-1.061 3.92-1.061 1.422 0 2.729.354 3.92 1.062 1.173.708 2.107 1.66 2.8 2.86.693 1.216 1.04 2.55 1.04 4.002V30.5h-4.427v9.096h4.427v1.116H30V43h6.667z" transform="translate(-800 -3587) translate(375 3569) translate(300) translate(105)"/>
                    </g>
                </g>
            </g>
        </g>
    </g>
</svg>
